<svg width="89" height="36" viewBox="0 0 89 36" fill="none" xmlns="http://www.w3.org/2000/svg">
<g clip-path="url(#clip0)">
<g clip-path="url(#clip1)">
<path fill-rule="evenodd" clip-rule="evenodd" d="M9.21289 6.31815C11.7418 5.72482 14.3742 5.9826 16.5676 6.91193C16.6196 6.96348 16.7484 7.01504 16.7484 7.0666C18.9676 8.04748 20.9547 9.82793 22.0644 11.9955C22.3693 12.5288 22.7222 13.235 22.7827 13.651C22.7876 13.6622 22.7916 13.6742 22.796 13.6857C22.9116 13.8395 23.0787 14.3417 23.06 14.4146L23.0791 14.4733C23.1453 14.5964 23.2173 14.8777 23.2791 15.1853C23.8418 17.5159 23.6556 20.1337 22.5493 22.4208C22.5613 22.4119 22.572 22.4088 22.5804 22.4217C22.5551 22.5506 22.4773 22.6537 22.4 22.8084C22.4 22.7839 22.4142 22.7262 22.4338 22.6635C22.3409 22.8608 22.2409 23.0546 22.136 23.2448C22.0631 23.4039 21.9884 23.5608 21.9098 23.7115C21.9098 23.867 21.9871 23.7115 22.0387 23.7115C21.9098 24.0217 21.4711 24.5635 21.4964 24.5635C21.4453 24.6924 21.3418 24.6924 21.2129 24.899C20.9804 25.2857 20.5418 25.8795 20.1036 26.2413C20.0258 26.499 19.4067 26.9377 19.1742 27.1959C18.684 27.4795 17.8067 28.2279 17.084 28.4604C16.9289 28.5119 16.9551 28.5377 16.8262 28.615C14.7356 29.6217 12.0516 30.0088 9.49689 29.4666C6.94178 28.9506 4.64533 27.5057 3.14844 25.7506C2.684 25.2084 2.19333 24.6408 1.884 24.0475C1.78044 23.8408 1.72889 23.8666 1.62622 23.6604C1.57422 23.5315 1.26444 22.9635 1.18711 22.8604C1.10978 22.499 0.877333 22.2666 0.825778 21.9315C0.774222 21.8284 0.8 21.9826 0.774222 21.9573C0.645333 21.5702 0 19.7119 0.128889 18.8862C0.0346667 18.7444 -0.0155556 18.235 0.016 17.7342L0.0155556 17.7439V17.7568C0.0168889 17.8755 0.112 17.1635 0.0822222 17.0413L0.0777778 17.0279C0.0257778 16.9764 0.0257778 17.3119 0 17.1053C0.0257778 16.9506 0.128889 16.3053 0.0515556 16.7186L0.052 16.715L0.0591111 16.6142C0.0937778 16.2422 0.193778 15.9706 0.265333 15.4879L0.284 15.3502C0.275111 15.3413 0.266222 15.371 0.257333 15.4159L0.257778 15.4115L0.288889 15.2506C0.437778 14.5208 0.700445 13.6417 1.11467 12.7657L1.21289 12.5635C1.75511 11.4279 2.55511 10.3697 3.30311 9.56971C3.27733 9.77637 2.632 10.2666 2.55467 10.5248C4.25822 8.40882 6.65822 6.93771 9.21333 6.31815H9.21289ZM18.1276 27.3377C17.9236 27.4586 17.716 27.5715 17.5053 27.6786C16.0818 28.5075 14.4929 29.0122 12.852 29.1568C14.6067 29.131 16.1036 28.4857 17.4453 27.7377C17.6768 27.6114 17.9043 27.478 18.1276 27.3377V27.3377ZM14.6427 28.6462C14.4044 28.6879 14.1084 28.7328 13.8 28.7706C12.7956 28.9502 11.7404 28.9248 10.9933 28.9248C12.1876 29.0977 13.4289 28.9728 14.6422 28.6462H14.6427ZM12.4387 7.6346C12.3613 7.66037 12.3098 7.66037 12.2324 7.66037H12.3356C12.3098 7.68615 12.1804 7.68615 12.0516 7.68615C12.0773 7.68615 12.1036 7.66037 12.1036 7.66037H12.0516C12.0516 7.66037 11.9227 7.6346 11.8196 7.66037C11.7933 7.68615 11.7418 7.68615 11.6907 7.68615V7.71193C11.3547 7.73771 11.1742 7.73771 10.916 7.78926H10.8644C10.8387 7.78926 10.8129 7.81504 10.7613 7.81504H10.684C10.7871 7.76348 10.684 7.78926 10.6324 7.78926C10.6212 7.78997 10.6102 7.79221 10.5996 7.79593L10.5649 7.80704L10.584 7.80215C10.5957 7.79868 10.6076 7.79571 10.6196 7.79326L10.6582 7.78926C10.4773 7.8666 10.0644 7.94393 9.75467 7.99593C9.21289 8.1506 8.64533 8.35682 8.12889 8.58926H8.10311C8.07733 8.61504 8.02578 8.61504 8 8.64082C8.02578 8.64082 8.05156 8.64082 8 8.6666C7.92267 8.69237 7.87111 8.71815 7.87111 8.74393C7.80222 8.76704 7.71422 8.80882 7.65911 8.81771L7.74178 8.76971C7.716 8.76971 7.69022 8.79593 7.66445 8.79593C7.66445 8.79282 7.66756 8.78837 7.672 8.78304C7.64622 8.79637 7.62045 8.81282 7.59422 8.82615C7.60886 8.82324 7.62374 8.82175 7.63867 8.82171C7.40667 8.92482 7.32889 9.00215 7.04533 9.15682L7.08222 9.13593L7.09689 9.13148C6.99333 9.19326 6.87378 9.27148 6.73733 9.3666L6.63245 9.44082C6.58045 9.49237 6.81289 9.36349 6.684 9.44082C6.45156 9.56971 6.42622 9.56971 6.116 9.80215C6.16756 9.72482 6.42578 9.56971 6.45156 9.49237C5.80667 9.93104 5.29022 10.4733 4.69689 11.1439C4.72267 11.0924 4.90311 10.8604 4.82578 10.8862C3.22578 12.6408 2.29689 15.0666 2.168 17.0795C2.116 17.0279 2.168 16.7182 2.19333 16.4862C2.16756 16.5377 2.14178 16.7182 2.116 16.7182C2.06444 17.3377 2.01289 18.1893 2.116 18.9377C2.116 18.9893 2.14178 19.0408 2.14178 19.1182V18.659C2.14311 18.6724 2.14711 18.7053 2.16756 18.7053C2.18711 18.4919 2.17733 18.2057 2.17156 17.9777C2.17022 17.971 2.16933 17.963 2.16756 17.9568C2.16889 17.9506 2.16933 17.9444 2.17022 17.9377C2.16866 17.8839 2.16777 17.8302 2.16756 17.7764C2.16756 17.6475 2.19333 17.6733 2.19333 17.6217C2.19333 17.3635 2.34844 16.6666 2.29689 16.9506C2.29689 16.9662 2.29511 16.9808 2.29467 16.9964L2.29422 16.9955L2.31156 16.8706C2.3631 16.5159 2.42386 16.1626 2.49378 15.811L2.52933 15.6346C2.55467 15.6604 2.55467 15.5826 2.58044 15.6088C2.63244 15.3764 2.60667 15.4279 2.60667 15.2733C2.73556 15.0666 2.78711 14.6795 2.99333 14.1893C3.04533 14.1635 3.04533 14.1893 3.04533 14.2666C2.96756 14.4475 2.96756 14.3955 2.91644 14.5764C2.89022 14.5764 2.86444 14.6022 2.86444 14.6022C2.81289 14.7568 2.81289 14.8088 2.76133 14.9119C2.76133 14.9893 2.78711 14.9119 2.81289 14.9119C2.78711 15.0666 2.73556 15.1697 2.70978 15.1182C2.684 15.2217 2.65822 15.299 2.65822 15.3506C2.684 15.3764 2.70978 15.1439 2.73556 15.2217C2.684 15.4022 2.684 15.4537 2.684 15.5568C2.63244 15.7377 2.60667 15.8666 2.55511 16.0733C2.52889 16.1506 2.55511 16.0733 2.55511 16.1764C2.50311 16.3568 2.50311 16.2537 2.47733 16.2022C2.45156 16.4088 2.50311 16.4346 2.45156 16.6408C2.42578 16.6408 2.45156 16.5893 2.42578 16.5893C2.4 16.7182 2.42578 16.7697 2.4 16.8733C2.42578 16.8217 2.42578 16.8217 2.45156 16.8217C2.42578 17.1568 2.4 17.1568 2.4 17.4928V17.4919L2.39911 17.4817C2.39467 17.4595 2.37956 17.4337 2.37511 17.4693L2.37378 17.4919L2.36711 17.4742C2.36489 17.4417 2.38711 17.3853 2.39644 17.3413L2.4 17.3119C2.4 17.1568 2.37422 17.5697 2.34844 17.415V17.5959C2.34844 17.7248 2.4 17.6733 2.4 17.7506C2.4 17.9568 2.45156 18.4217 2.4 18.5248C2.37422 18.6537 2.4 18.6022 2.37422 18.6279C2.37422 19.2733 2.50311 19.9439 2.70978 20.7959C2.684 20.8733 2.65822 20.667 2.63244 20.7182C2.58044 20.5377 2.52889 20.4604 2.50356 20.3053C2.52889 20.2537 2.45156 19.8924 2.42578 19.7377C2.42578 19.7377 2.42578 19.815 2.45156 19.9182C2.37422 19.815 2.4 19.7119 2.34844 19.5053C2.37422 19.6088 2.34844 19.4795 2.37422 19.4537C2.32267 19.3764 2.37422 19.2217 2.32267 19.1697C2.34844 19.1182 2.29689 18.6795 2.29689 18.4475C2.276 18.4475 2.25378 18.3826 2.21867 18.3853C2.21511 18.6075 2.21511 18.8297 2.22089 19.0484C2.24844 19.1666 2.34844 19.8684 2.34844 19.9959C2.4 20.1764 2.58044 20.9248 2.63244 21.2346C2.83867 21.8284 3.148 22.6026 3.45822 23.1697C3.50978 23.2217 3.53556 23.2733 3.56133 23.3248V23.3506C3.58711 23.3768 3.61289 23.4279 3.63867 23.4537C3.63867 23.4022 3.61289 23.3768 3.66444 23.4279C3.716 23.4795 3.74178 23.531 3.76756 23.531C3.79333 23.6088 3.87111 23.7119 3.87111 23.7639C3.94845 23.8408 3.92267 23.7639 4 23.8666C4.07733 23.9697 4.05156 23.9697 4.12889 24.0733C4.02578 23.9959 3.92267 23.8408 3.76756 23.6346C3.76756 23.6604 3.79333 23.6862 3.81956 23.7119C3.84533 23.7639 3.84533 23.7639 3.84533 23.7893C4.02578 24.099 4.25822 24.3568 4.61956 24.7439C4.65645 24.7626 4.588 24.6622 4.584 24.6422C4.46431 24.4888 4.34711 24.3335 4.23244 24.1764C4.15467 24.0733 3.948 23.7893 3.948 23.7893C3.948 23.7377 3.484 23.0666 3.484 22.8862C3.63867 23.1697 3.74178 23.3768 3.89689 23.5573L3.87111 23.5826C4.02578 23.7893 4.25778 24.1248 4.284 24.2279C4.36133 24.3053 4.25822 24.1764 4.33556 24.2537C4.38711 24.3568 4.38711 24.3568 4.516 24.5382C4.46445 24.4604 4.90311 24.899 4.87733 24.9506C4.92889 25.0022 4.92889 24.9506 5.03245 25.0795C5.05333 25.1186 5.08311 25.1488 5.10933 25.1826C5.00711 25.1057 5.05822 25.183 5.10933 25.2346L5.108 25.2328L5.036 25.1644C4.95733 25.0854 4.88186 25.0032 4.80978 24.9182L4.73333 24.8275C4.80933 24.9435 4.85333 25.023 5.05778 25.2088C4.98045 25.183 4.8 24.9506 4.72267 24.9248C5.01625 25.243 5.33555 25.5364 5.67733 25.8022C5.52267 25.6475 5.34178 25.4924 5.18711 25.3377C5.14889 25.2808 5.15289 25.2515 5.13689 25.2195C5.30267 25.4128 5.53511 25.5453 5.70311 25.7764C5.80845 25.8608 5.77822 25.7928 5.832 25.8333C5.69156 25.7026 5.62756 25.603 5.41956 25.4413C5.34178 25.3124 5.49689 25.4924 5.52267 25.4666C5.48578 25.4119 5.42222 25.3808 5.34267 25.3133C5.41556 25.4364 5.13556 25.131 5.10978 25.0795C5.084 25.0279 5.21289 25.183 5.29022 25.2346C4.98045 24.8733 4.59333 24.5893 4.41289 24.2022C4.46445 24.2537 4.49022 24.2279 4.54178 24.2799C4.61956 24.3826 4.59333 24.4088 4.64533 24.4604C4.85156 24.6408 4.92889 24.7697 5.084 24.899C5.084 24.9248 5.10978 24.9248 5.13556 24.9764C5.00667 24.9248 5.10978 24.9764 5.18711 25.0542C5.36756 25.2346 5.83245 25.6733 5.93556 25.7506C6.34845 26.0346 6.65822 26.3444 6.94178 26.499L6.916 26.5248C7.07111 26.5764 7.12267 26.6537 7.30311 26.7315H7.25156C7.69022 26.9635 7.89689 27.1182 8.284 27.2475C8.516 27.4795 9.10978 27.5568 9.39333 27.7377C9.54845 27.7639 9.70311 27.8408 9.78045 27.815C9.80667 27.8408 10.0902 27.8928 10.0129 27.9182C10.5804 28.047 12 28.2799 12.7227 28.2022C12.7227 28.2279 12.8778 28.2022 12.9804 28.2279C13.0427 28.2075 13.0698 28.2044 12.9996 28.2564C13.0302 28.2622 13.0324 28.2799 13.0324 28.2799C13.2129 28.2799 13.3938 28.2537 13.6 28.2279C13.652 28.2279 13.7031 28.2022 13.7289 28.2022H13.8324C13.9613 28.2022 14.116 28.1764 14.2453 28.1506C14.2711 28.1248 14.2969 28.1248 14.2969 28.099C14.4404 28.075 14.5156 28.0746 14.5462 28.0946C14.5844 28.0848 14.6618 28.051 14.684 28.0733C14.7098 28.0475 14.7356 28.0475 14.7613 28.0475C14.8387 28.0217 14.916 27.9959 15.0191 27.9697C14.8902 27.9959 14.684 28.0733 14.6324 28.0475C14.7613 28.0217 15.4582 27.815 15.5876 27.815C15.7418 27.7377 16.284 27.5573 16.6196 27.4284C16.6196 27.4022 16.6453 27.3768 16.6969 27.3768H16.7484C16.7742 27.3502 16.7742 27.3502 16.8 27.3502C16.9031 27.299 16.9804 27.2479 17.084 27.1959C17.084 27.1439 17.2129 27.1186 17.3418 27.0408C17.7809 26.783 18.2707 26.4986 18.6582 26.2408C18.7871 26.1119 18.9422 26.0088 19.0969 25.8795L19.1227 25.8537H19.1484C19.2258 25.8022 19.2773 25.7506 19.3547 25.699C19.4836 25.4924 19.9747 25.1835 20.0773 24.9506C20.1804 24.8217 20.1547 24.9248 20.2329 24.8217C20.464 24.487 20.644 24.3324 20.7476 24.1008C20.6964 24.1693 20.6453 24.2373 20.5933 24.3053C20.5418 24.3568 20.516 24.331 20.4644 24.3826C20.4071 24.4404 20.4484 24.427 20.4844 24.395C20.252 24.6942 19.908 25.0155 19.5613 25.3373C19.4582 25.415 19.2004 25.6733 19.2004 25.6733C19.1227 25.6733 18.5293 26.2155 18.3484 26.2408C18.6062 26.0346 18.8133 25.931 18.9676 25.7506L18.9933 25.7764C19.2004 25.5959 19.484 25.3119 19.5876 25.2862C19.6387 25.2088 19.5098 25.3119 19.5876 25.2346C19.6644 25.183 19.6902 25.183 19.8453 25.0279C19.7676 25.1053 20.1547 24.6413 20.2067 24.6413C20.2582 24.5893 20.2067 24.5893 20.3098 24.4857C20.5676 24.2799 20.6711 23.9702 20.9289 23.7377C21.0324 23.6088 20.9031 23.7119 21.0067 23.5568C20.8516 23.7377 20.7742 23.7893 20.62 24.0475C20.516 24.1248 20.6711 23.9697 20.6453 23.9439C20.5676 24.0217 20.5418 24.1248 20.4129 24.2537C20.4129 24.2715 20.4684 24.2306 20.4987 24.1946C20.4409 24.2715 20.3404 24.3933 20.3098 24.4088C20.2582 24.4088 20.3871 24.2799 20.4387 24.2022C20.3792 24.2676 20.3218 24.3349 20.2667 24.4039C20.2801 24.3791 20.2945 24.3548 20.3098 24.331C20.4644 24.1506 20.852 23.6599 20.9031 23.531C21.1356 23.0924 21.4196 22.731 21.5227 22.4475L21.5484 22.4733C21.5742 22.3182 21.6258 22.2408 21.7031 22.0599V22.1119C21.884 21.6475 22.0129 21.415 22.0902 21.0279C22.2969 20.7702 22.2969 20.1764 22.4516 19.8666C22.4516 19.7119 22.5289 19.5568 22.4773 19.4799C22.5031 19.4799 22.5031 19.1697 22.5551 19.2475C22.5804 18.7053 22.684 17.2342 22.5031 16.5377C22.5289 16.5377 22.4773 16.3826 22.5031 16.2799C22.4773 16.1506 22.4516 16.1506 22.4262 16.2022C22.4516 16.1248 22.3742 15.8924 22.4 15.8155C22.3484 15.7635 22.2969 15.531 22.2453 15.4022C22.2196 15.2733 22.2196 15.1959 22.1933 15.0666C22.116 14.9635 22.0902 14.7568 22.0129 14.6537C22.0644 14.6537 21.9356 14.4733 22.0129 14.499C21.8938 14.3599 21.7898 13.9933 21.6427 13.667L21.6431 13.6688L21.652 13.699C21.6289 13.6532 21.6076 13.6065 21.588 13.559L21.5738 13.5235C21.5501 13.4776 21.5245 13.4329 21.4969 13.3893C21.5293 13.4057 21.5436 13.447 21.5738 13.5235L21.6093 13.5946L21.6418 13.6648C21.6187 13.5773 21.5884 13.4977 21.4969 13.3377C21.6 13.4666 21.4453 13.2088 21.4969 13.2346C21.4196 13.1826 21.3938 13.1057 21.3938 13.1826C21.3418 13.1053 21.3938 13.131 21.316 13.0022C21.2649 12.9506 21.2902 13.0279 21.2902 13.0795C21.2387 12.9248 21.1613 12.8217 21.2387 12.8733C21.1613 12.6924 21.1098 12.7697 21.0582 12.6408C21.0582 12.5635 21.0582 12.5893 21.1356 12.7182C21.0324 12.4862 20.9804 12.4346 20.8 12.1764C20.9289 12.3053 20.6711 12.0217 20.8 12.1248C20.7227 12.0475 20.5422 11.7377 20.5676 11.815C20.1036 11.1697 19.6902 10.8088 19.1484 10.2408C19.0453 10.1893 18.8907 10.0346 18.7351 9.87948C18.6062 9.77637 18.4773 9.67326 18.3484 9.59593L18.2969 9.54393C17.0836 8.71815 15.7164 8.1506 14.4516 7.91815C14.5289 7.89237 14.8133 7.96971 15.0453 8.02171C14.9933 7.99593 14.8133 7.94393 14.8133 7.91815C14.7356 7.89237 14.6578 7.89237 14.5804 7.8666H14.5289C14.4516 7.84082 14.4262 7.81504 14.4262 7.81504C14.3484 7.78926 14.2707 7.78926 14.168 7.76348C14.168 7.76348 14.1933 7.78926 14.2453 7.78926C14.2196 7.78926 13.9609 7.76348 14.1933 7.81504C13.9356 7.76348 13.7289 7.73771 13.5742 7.68615H13.4711C13.4196 7.68615 13.4453 7.71193 13.3676 7.71193C13.1871 7.71193 12.6711 7.60882 12.5418 7.68615C12.5418 7.66037 12.516 7.6346 12.4387 7.6346V7.6346ZM16.4902 27.2213C16.568 27.2213 16.3613 27.2733 16.4129 27.2986C16.2324 27.3764 16.1551 27.4275 16 27.4795C15.9227 27.4795 15.5871 27.6084 15.4324 27.6346C15.4324 27.6604 15.5098 27.6346 15.6129 27.6088C15.5098 27.7119 15.3809 27.6857 15.2 27.7635C15.3031 27.7119 15.1742 27.7635 15.1484 27.7377C15.0711 27.7893 14.916 27.7635 14.8644 27.815C14.8129 27.7893 14.3742 27.8666 14.1418 27.9186C14.168 27.9439 14.0387 27.9959 14.116 28.0217C13.9356 28.0475 13.7809 28.0475 13.6773 28.099C13.5227 28.099 13.368 28.099 13.3418 28.0728C12.9289 28.1248 12.2324 28.099 11.3551 27.9959C11.3551 27.9702 11.3031 27.9702 11.3031 27.9439C11.0711 27.9439 11.1227 27.9439 10.968 27.9702C10.7356 27.8666 10.3484 27.8413 9.83245 27.7119C9.78089 27.6604 9.80667 27.6604 9.884 27.6604C10.0644 27.7119 10.0387 27.6857 10.2196 27.7377C10.2453 27.7635 10.2711 27.7635 10.2711 27.7893C10.4516 27.8408 10.5031 27.815 10.6067 27.8666C10.684 27.8408 10.6067 27.8408 10.6067 27.815C10.7613 27.8408 10.8902 27.8666 10.8387 27.8924C10.9147 27.9113 10.9928 27.9201 11.0711 27.9186C11.0969 27.8924 10.8644 27.8924 10.9422 27.8666C11.1227 27.9186 11.1742 27.8924 11.2773 27.8924C11.4582 27.9186 11.5871 27.9439 11.7938 27.9702C11.8711 27.9702 11.768 27.9439 11.8969 27.9439C12.1031 27.9702 12 27.9959 11.9484 28.0217C12.1551 28.0217 12.1809 27.9702 12.3871 27.9959C12.3871 27.9959 12.3356 27.9959 12.3356 28.0217C12.4902 28.0475 12.516 28.0217 12.6196 28.0217C12.568 27.9959 12.568 27.9959 12.568 27.9702C12.9031 27.9439 12.9031 27.9959 13.2391 27.9439L13.224 27.9457L13.2169 27.9479C13.1991 27.9542 13.1858 27.9657 13.2156 27.9688L13.2387 27.9702C13.2129 27.9959 13.1098 27.9702 13.0582 27.9702C12.9031 27.9959 13.316 27.9959 13.1613 28.0217H13.3418C13.4453 27.9959 13.3938 27.9702 13.4707 27.9439C13.6773 27.9186 14.1418 27.815 14.2453 27.8666C14.3742 27.8666 14.3227 27.8408 14.3742 27.815C15.0196 27.7377 15.6644 27.5315 16.4902 27.2217V27.2213ZM5.98711 26.1635C6.19333 26.3182 6.37378 26.4733 6.47733 26.5764C6.52889 26.6026 6.55467 26.6026 6.58045 26.6026C6.65822 26.6537 6.76133 26.7053 6.65822 26.6795C6.89022 26.8084 7.30311 27.1186 7.50978 27.1959C7.74178 27.3768 8.49022 27.6862 8.95467 27.8928C9.316 27.9697 9.54845 28.099 9.90978 28.099C9.85822 28.0475 9.75467 28.0733 9.62578 28.0217C9.6 28.0217 9.65156 27.9959 9.62578 27.9959C9.29022 27.9439 7.45822 27.1439 7.09689 26.8604C6.83052 26.6918 6.57216 26.5109 6.32267 26.3182C6.29689 26.3182 6.29689 26.3444 6.32267 26.3697C6.20525 26.3105 6.09301 26.2415 5.98711 26.1635V26.1635ZM11.9742 27.7119C12.1809 27.7119 11.9742 27.7119 12.0773 27.7377C12.2582 27.7119 12.4387 27.7635 12.5938 27.7635C12.5418 27.7893 12.4649 27.7893 12.4129 27.815C12.2582 27.7893 12.3098 27.7635 12.1289 27.7893C12.1289 27.7635 12.1809 27.7635 12.2578 27.7635C12.2067 27.7377 12.0258 27.7635 12.0258 27.7893C11.9683 27.7765 11.9101 27.767 11.8516 27.7608C11.9164 27.7359 11.8498 27.7119 11.9742 27.7119ZM1.70267 16.1275L1.66089 16.3248C1.48133 17.2759 1.55333 18.4613 1.62578 19.3764C1.54844 19.1959 1.52267 18.7826 1.49689 18.5506V18.5564L1.512 18.7764C1.62838 20.1714 2.00415 21.5325 2.62 22.7897L2.73556 23.015C2.55467 22.8346 2.32222 22.3182 2.16756 21.9053C2.06444 21.6217 1.96133 21.3119 1.85822 21.0279C1.84711 21.0226 1.84444 21.0302 1.84489 21.0439C2.18711 22.155 2.70444 23.211 3.38044 24.1506C4.15467 25.183 4.98045 25.9053 5.96133 26.6279C6.21911 26.8346 6.47733 27.0413 6.78711 27.2217C7.17378 27.4537 7.56133 27.5826 7.94845 27.7639L8.05067 27.8062C7.16845 27.3924 6.38311 26.8937 5.85822 26.4217C5.13935 25.8517 4.50489 25.1827 3.97378 24.4346C3.92267 24.4088 3.92267 24.3568 3.89689 24.3057C3.84533 24.2022 3.69022 24.0217 3.61289 23.8924C3.58711 23.8666 3.58711 23.8408 3.56133 23.815C3.17122 23.2723 2.83412 22.6933 2.55467 22.0862C2.32267 21.5959 2.01289 20.6924 1.85822 20.0728V20.1248C1.82978 20.0964 1.832 20.0657 1.83156 20.0199C1.75378 19.859 1.54844 18.4719 1.57378 17.9826C1.54844 17.3115 1.62578 16.6408 1.70311 16.1248L1.70267 16.1275V16.1275ZM10.9938 27.6088C11.2773 27.6346 11.484 27.6604 11.7676 27.7119C11.7422 27.7119 11.7164 27.7119 11.7164 27.7377C11.7164 27.7435 11.7209 27.747 11.7271 27.751C11.6271 27.7444 11.5107 27.7377 11.3293 27.7119C11.3031 27.6862 11.4067 27.6862 11.3809 27.6604H11.2773C11.2258 27.6346 11.2258 27.6604 11.2258 27.6862C11.0196 27.6604 10.9422 27.6346 10.9938 27.6088V27.6088ZM9.83245 27.2733C10.3742 27.4022 10.3742 27.4279 10.916 27.531C10.9938 27.6346 10.684 27.5568 10.6324 27.5568C10.2969 27.4795 10.0902 27.4279 9.78089 27.3248C9.85822 27.3248 9.85822 27.3248 9.83245 27.2733V27.2733ZM7.01911 25.9057C7.22578 26.0862 7.35511 26.0862 7.53556 26.2155C7.40667 26.1635 7.50978 26.2155 7.56133 26.2666C7.56133 26.2408 7.61289 26.2666 7.69022 26.2928C7.92267 26.499 8.23245 26.5506 8.23245 26.6279C8.36133 26.6537 8.54222 26.7568 8.77467 26.8604C8.77467 26.8862 8.64533 26.8088 8.64533 26.8346C8.64533 26.8604 8.87734 26.9377 8.87734 26.9119C8.92889 26.9377 8.92889 26.9635 8.95511 26.9377C9.10978 26.9893 9.13556 27.0408 9.29022 27.0666L9.26445 27.1186C9.316 27.1439 9.316 27.0924 9.316 27.0924C9.44489 27.1186 9.368 27.1439 9.44489 27.1697C9.49689 27.1959 9.41956 27.1439 9.44489 27.1439C9.54845 27.1959 9.65156 27.2213 9.78089 27.2475C9.83245 27.3248 9.72889 27.299 9.70311 27.3248C8.85156 27.0408 8.05156 26.6537 7.25156 26.1377C7.27733 26.0862 6.968 25.9573 7.01956 25.9057H7.01911ZM18.2707 26.3444C17.884 26.6279 17.4711 26.8346 16.8778 27.1182C17.1098 26.9377 17.7809 26.6279 18.168 26.3702C18.1938 26.3702 18.1938 26.3959 18.2707 26.3444ZM20.2324 24.4088C20.2288 24.4237 20.2267 24.4389 20.2262 24.4542C20.0102 24.7262 19.8098 25.0062 19.5356 25.183C19.5871 25.1315 19.5871 25.1053 19.6129 25.0542C19.6902 24.9764 19.7164 25.0022 19.7676 24.9506C19.9231 24.7182 20.052 24.6408 20.1547 24.4599C20.1809 24.4599 20.2062 24.4599 20.2324 24.4088V24.4088ZM2.86444 21.2604C2.99333 21.5182 3.22578 22.215 3.43244 22.6279C3.43244 22.647 3.42933 22.6586 3.428 22.6684C3.23378 22.2737 3.06089 21.8484 2.86444 21.2604V21.2604ZM3.05644 15.3208L3.07111 15.3248C3.01956 15.6346 2.99378 15.815 2.89022 16.099C2.89022 16.0733 2.89022 16.0475 2.86444 16.0475C2.86444 16.0475 2.83867 16.1248 2.83867 16.1764C2.83867 16.2537 2.86444 16.2022 2.86444 16.331C2.83867 16.5119 2.83867 16.3053 2.81289 16.4088C2.83867 16.615 2.76133 16.7702 2.73556 16.9248C2.73556 16.8733 2.70978 16.7959 2.70978 16.7444C2.73556 16.5893 2.76133 16.6408 2.76133 16.4599V16.5893C2.78711 16.5377 2.78711 16.383 2.76133 16.3573C2.83867 16.1506 2.81289 16.0217 2.916 15.6862C2.968 15.6604 2.94178 15.7635 2.968 15.7377V15.6346C2.99378 15.583 2.968 15.583 2.94178 15.583C2.99378 15.4022 3.01956 15.2986 3.07067 15.3248L3.05644 15.3208ZM3.45822 14.1893C3.45822 14.2666 3.45822 14.2924 3.50978 14.2666C3.32889 14.7568 3.27733 14.7568 3.12267 15.299C3.01956 15.3764 3.14844 15.0666 3.12267 15.015C3.25156 14.6795 3.30311 14.4728 3.45822 14.1893V14.1893ZM5.19645 11.6217L5.21289 11.6346C5.00667 11.815 5.00667 11.9186 4.85156 12.099L4.852 12.0982L4.86756 12.0733C4.91644 11.9933 4.87911 12.063 4.81733 12.1119L4.8 12.1248C4.8 12.1506 4.77422 12.1764 4.74845 12.2537C4.54222 12.4862 4.43867 12.7702 4.36178 12.7702C4.284 12.899 4.18089 13.0795 4.05156 13.2857C4.05156 13.2604 4.12933 13.1568 4.10311 13.1568C4.07733 13.1315 3.97422 13.3635 4 13.3635C3.94845 13.415 3.92267 13.415 3.94844 13.4408C3.87111 13.5697 3.81956 13.5959 3.768 13.7506L3.74222 13.7248C3.71645 13.7764 3.768 13.7506 3.768 13.7764C3.71644 13.8795 3.71644 13.8022 3.66444 13.8795C3.63867 13.9573 3.69022 13.8795 3.69022 13.9053C3.63867 13.983 3.61289 14.0862 3.56133 14.1897C3.484 14.2408 3.50978 14.1377 3.484 14.1119C3.87067 13.2862 4.33556 12.5377 4.95511 11.815C5.00667 11.8408 5.16133 11.5573 5.21289 11.6346L5.19645 11.6217ZM11.8996 6.39237L11.6644 6.39593C9.62578 6.42171 7.56133 7.09237 5.93556 8.20215C6.47155 7.88544 7.02838 7.60539 7.60222 7.36393C7.57911 7.3786 7.56133 7.39237 7.56133 7.40215C7.66445 7.3506 7.61289 7.42793 7.56133 7.45371C7.66445 7.40215 7.81911 7.3506 7.81911 7.32482C7.7 7.37237 7.67333 7.35282 7.73022 7.30882C7.68756 7.3266 7.64445 7.34615 7.60178 7.36393C7.63911 7.34037 7.69422 7.31504 7.74178 7.29904C7.736 7.30304 7.73511 7.30526 7.73022 7.30926C8.04597 7.17664 8.36866 7.06121 8.69689 6.96348C8.72267 6.98926 8.61956 7.04082 8.43911 7.09237C8.46445 7.11815 8.61956 7.0666 8.8 7.01504C8.05156 7.29904 7.38045 7.47948 6.55467 7.96971C6.50311 7.94393 6.24533 8.12482 6.4 7.99593C6.16756 8.1506 5.54845 8.64082 5.54845 8.53771C5.16133 8.84748 4.43867 9.44082 3.76756 10.1377C3.09644 10.8346 2.52889 11.6604 2.27111 12.2022C2.684 11.6346 3.04533 10.9893 3.61289 10.3444C3.84533 10.0599 4.20667 9.77637 4.516 9.51815C6.03867 8.1506 8.20667 6.98926 10.4258 6.7826C10.4707 6.73815 10.5582 6.71904 10.6493 6.70571L10.6982 6.69904L10.5093 6.72304C10.4262 6.7346 10.3436 6.74704 10.2604 6.76126L10.0129 6.80882C10.0387 6.7826 10.1418 6.75682 10.1418 6.73104C10.0644 6.70526 9.72889 6.7826 9.70311 6.75682C9.52267 6.8346 9.93556 6.73104 9.85822 6.80882C9.49689 6.88615 9.26445 6.91193 8.87734 7.04082C9.084 6.93771 9.16133 6.86037 9.34178 6.78304C11.8911 6.23771 14.9613 6.45771 17.6676 8.09193C18.5902 8.56793 19.5249 9.22348 20.284 9.98215C20.3244 10.0222 20.3622 10.0639 20.4022 10.1044C20.3818 10.0639 20.4413 10.0999 20.516 10.1373C20.1804 9.77593 20.3613 10.0342 20.1293 9.82749C19.3293 9.00171 18.3227 8.15015 17.2649 7.68526C15.6902 6.85993 13.7031 6.34348 11.6649 6.39548L11.8996 6.39237ZM20.7124 10.431C21.0859 10.8481 21.4276 11.2927 21.7347 11.7608C21.4369 11.2653 21.0938 10.7933 20.7124 10.431V10.431ZM14.8129 6.8346C14.8907 6.78304 15.3031 6.91193 15.6649 7.01504C15.6649 7.04082 15.6382 7.01504 15.5871 7.01504C15.5613 7.01504 15.6129 7.04082 15.6387 7.0666C15.4067 7.04082 15.1227 6.88615 14.8129 6.8346V6.8346ZM12.4907 6.65371C11.9559 6.61833 11.4191 6.62725 10.8858 6.68037C11.0662 6.68615 10.6858 6.73282 10.7098 6.75682C11.0875 6.72557 11.4663 6.70838 11.8453 6.70526C11.6129 6.67948 11.2516 6.70526 10.9933 6.73104C11.2516 6.60215 12.0516 6.67948 12.4907 6.65371V6.65371Z" fill="black"/>
</g>
<path d="M33.046 12.984C32.626 12.984 32.2727 12.8373 31.986 12.544C31.6993 12.244 31.556 11.894 31.556 11.494C31.556 11.0807 31.6993 10.724 31.986 10.424C32.2727 10.1307 32.626 9.984 33.046 9.984C33.4593 9.984 33.816 10.1307 34.116 10.424C34.4093 10.724 34.556 11.0807 34.556 11.494C34.556 11.894 34.4027 12.244 34.096 12.544C33.796 12.8373 33.446 12.984 33.046 12.984ZM34.196 14.494V26.014H31.816V14.494H34.196ZM44.086 14.204C46.546 14.204 47.776 15.4307 47.776 17.884V26.014H45.356V18.074C45.356 17.2073 45.2027 16.5707 44.896 16.164C44.596 15.7573 44.116 15.554 43.456 15.554C42.4827 15.554 41.5227 15.9207 40.576 16.654V26.014H38.156V14.494H39.216L40.176 15.694C40.7493 15.2473 41.3827 14.8873 42.076 14.614C42.776 14.3407 43.446 14.204 44.086 14.204ZM58.966 14.494H60.356L56.346 26.014H53.686L49.746 14.494H52.176L55.536 24.794L58.966 14.494ZM71.536 20.404H64.096V20.444C64.096 22.144 64.3027 23.344 64.716 24.044C65.1227 24.7507 65.8227 25.104 66.816 25.104C68.4427 25.104 69.296 24.264 69.376 22.584L71.376 22.684C71.2627 23.804 70.8527 24.6873 70.146 25.334C69.446 25.9807 68.3093 26.304 66.736 26.304C64.9293 26.304 63.636 25.804 62.856 24.804C62.0693 23.804 61.676 22.2873 61.676 20.254C61.676 18.434 62.0493 16.9707 62.796 15.864C63.536 14.7573 64.8427 14.204 66.716 14.204C68.5227 14.204 69.7793 14.754 70.486 15.854C71.186 16.9473 71.536 18.384 71.536 20.164V20.404ZM66.666 15.404C65.8193 15.404 65.2027 15.7173 64.816 16.344C64.436 16.9707 64.206 17.924 64.126 19.204H69.186C69.1393 17.9507 68.9293 17.004 68.556 16.364C68.176 15.724 67.546 15.404 66.666 15.404ZM76.796 16.684C77.1627 15.9907 77.6793 15.4373 78.346 15.024C79.006 14.6107 79.8027 14.404 80.736 14.404V16.174C78.2693 16.174 77.036 17.134 77.036 19.054H77.016V26.014H74.586V14.494H75.646L76.796 16.684ZM87.836 24.504L88.146 25.604C87.2993 26.0707 86.4827 26.304 85.696 26.304C84.896 26.304 84.3027 26.1573 83.916 25.864C83.5227 25.564 83.276 25.2073 83.176 24.794C83.0827 24.374 83.036 23.8607 83.036 23.254V15.724H81.166V14.494H83.036V12.624L85.486 11.714V14.494H87.936V15.724H85.486V23.544C85.486 24.0707 85.5527 24.434 85.686 24.634C85.826 24.834 86.056 24.934 86.376 24.934C86.8227 24.934 87.3093 24.7907 87.836 24.504Z" fill="#0B005D"/>
</g>
<defs>
<clipPath id="clip0">
<rect width="88.148" height="36" fill="white"/>
</clipPath>
<clipPath id="clip1">
<rect width="23.5556" height="24" fill="white" transform="translate(0 6)"/>
</clipPath>
</defs>
</svg>
