<svg width="120" height="98" viewBox="0 0 120 98" fill="none" xmlns="http://www.w3.org/2000/svg">
<g clip-path="url(#clip0)">
<path d="M73.869 47.727H43.1875V17.0455C43.1875 16.418 42.6785 15.9095 42.051 15.9095C41.4235 15.9095 40.915 16.4185 40.915 17.0455V48.864C40.915 49.4915 41.424 50 42.051 50H73.8695C74.497 50 75.0055 49.491 75.0055 48.864C75.005 48.236 74.4965 47.727 73.869 47.727Z" fill="#EAD017"/>
<path d="M45.9015 46.591H49.6585C50.53 46.591 51.2365 45.8845 51.2365 45.013V25.442C51.2365 24.5705 50.53 23.864 49.6585 23.864H45.9015C45.03 23.864 44.3235 24.5705 44.3235 25.442V45.013C44.3235 45.8845 45.03 46.591 45.9015 46.591Z" fill="#EAD017"/>
<path d="M53.8566 46.591H57.5181C58.3896 46.591 59.0966 45.8845 59.0966 45.013V22.033C59.0966 21.1615 58.3896 20.455 57.5181 20.455H53.8566C52.9851 20.455 52.2786 21.1615 52.2786 22.033V45.013C52.2781 45.8845 52.9846 46.591 53.8566 46.591Z" fill="#EAD017"/>
<path d="M61.811 46.591H65.4725C66.344 46.591 67.0505 45.8845 67.0505 45.013V17.4875C67.0505 16.616 66.344 15.9095 65.4725 15.9095H61.811C60.9395 15.9095 60.233 16.616 60.233 17.4875V45.013C60.233 45.8845 60.9395 46.591 61.811 46.591Z" fill="#EAD017"/>
<path d="M78.4075 5.682L71.596 0L64.785 5.682H68.1875V45.0125C68.1875 45.884 68.894 46.5905 69.7655 46.5905H73.427C74.2985 46.5905 75.005 45.884 75.005 45.0125V5.682H78.4075Z" fill="#EAD017"/>
<path d="M4.52 97.4H0V65H4.52V79H12.84V65H17.36V97.4H12.84V82.24H4.52V97.4ZM30.8 97.76C28.4533 97.76 26.6533 97.2933 25.4 96.36C24.1467 95.4267 23.2933 94.1133 22.84 92.42C22.3867 90.7267 22.16 88.7467 22.16 86.48V65H26.48V86.68C26.48 88.0667 26.5733 89.3333 26.76 90.48C26.9467 91.6267 27.3533 92.5333 27.98 93.2C28.6067 93.8667 29.5467 94.2 30.8 94.2C32.08 94.2 33.0267 93.8667 33.64 93.2C34.2533 92.5333 34.6533 91.6267 34.84 90.48C35.0267 89.3333 35.12 88.0667 35.12 86.68V65H39.4V86.48C39.4 88.7467 39.1733 90.7267 38.72 92.42C38.2667 94.1133 37.42 95.4267 36.18 96.36C34.94 97.2933 33.1467 97.76 30.8 97.76ZM48 97.4H44.16V65H47.24L56.44 86.52V65H60.2V97.4H57.32L48 75.28V97.4ZM69.12 97.4H65.28V65H68.36L77.56 86.52V65H81.32V97.4H78.44L69.12 75.28V97.4ZM99.04 97.4H86.4V65H98.96V68.36H90.92V79.08H97.44V82.28H90.92V94.16H99.04V97.4ZM110.08 97.4H102.68V65H109.72C112.12 65 114.02 65.3667 115.42 66.1C116.82 66.8333 117.82 67.9333 118.42 69.4C119.02 70.8667 119.32 72.6933 119.32 74.88V86.8C119.32 89.0933 119.02 91.0267 118.42 92.6C117.82 94.1733 116.847 95.3667 115.5 96.18C114.153 96.9933 112.347 97.4 110.08 97.4ZM107.2 68.36V94.16H109.76C111.413 94.16 112.587 93.84 113.28 93.2C113.973 92.56 114.393 91.6267 114.54 90.4C114.687 89.1733 114.76 87.6933 114.76 85.96V75.44C114.76 73.76 114.653 72.4 114.44 71.36C114.227 70.32 113.76 69.56 113.04 69.08C112.32 68.6 111.187 68.36 109.64 68.36H107.2Z" fill="black"/>
</g>
<defs>
<clipPath id="clip0">
<rect width="119.32" height="97.76" fill="white"/>
</clipPath>
</defs>
</svg>
