<?xml version="1.0" standalone="no"?>
<svg xmlns="http://www.w3.org/2000/svg" width="119.32000000000001" height="97.75999999999999" viewBox="0 0 119.32000000000001 97.75999999999999"><g fill="#ead017" color="#ead017" transform="translate(34.661 0) scale(0.5)"><svg width="100.0" height="100.0" x="0.0" y="0.0" viewBox="0 0 100 100"><g><path d="M78.416,95.454H17.053V34.091c0-1.255-1.018-2.272-2.273-2.272c-1.255,0-2.272,1.018-2.272,2.272v63.637   c0,1.255,1.018,2.272,2.272,2.272h63.637c1.255,0,2.272-1.018,2.272-2.272C80.688,96.472,79.671,95.454,78.416,95.454z"></path><path d="M22.481,93.182h7.514c1.743,0,3.156-1.413,3.156-3.156V50.884c0-1.743-1.413-3.156-3.156-3.156h-7.514   c-1.743,0-3.156,1.413-3.156,3.156v39.142C19.325,91.769,20.738,93.182,22.481,93.182z"></path><path d="M38.391,93.182h7.323c1.743,0,3.157-1.413,3.157-3.156v-45.96c0-1.743-1.414-3.156-3.157-3.156h-7.323   c-1.743,0-3.156,1.413-3.156,3.156v45.96C35.234,91.769,36.647,93.182,38.391,93.182z"></path><path d="M54.3,93.182h7.323c1.743,0,3.156-1.413,3.156-3.156V34.975c0-1.743-1.413-3.156-3.156-3.156H54.3   c-1.743,0-3.156,1.413-3.156,3.156v55.051C51.144,91.769,52.557,93.182,54.3,93.182z"></path><path d="M87.493,11.364L73.87,0L60.248,11.364h6.805v78.661c0,1.743,1.413,3.156,3.156,3.156h7.323   c1.743,0,3.156-1.413,3.156-3.156V11.364H87.493z"></path></g></svg></g><path fill="#000000" fill-rule="nonzero" d="M4.52 32.40L0 32.40L0 0L4.52 0L4.52 14.00L12.84 14.00L12.84 0L17.36 0L17.36 32.40L12.84 32.40L12.84 17.24L4.52 17.24L4.52 32.40ZM30.80 32.76L30.80 32.76Q27.28 32.76 25.40 31.36Q23.52 29.96 22.84 27.42Q22.16 24.88 22.16 21.48L22.16 21.48L22.16 0L26.48 0L26.48 21.68Q26.48 23.76 26.76 25.48Q27.04 27.20 27.98 28.20Q28.92 29.20 30.80 29.20L30.80 29.20Q32.72 29.20 33.64 28.20Q34.56 27.20 34.84 25.48Q35.12 23.76 35.12 21.68L35.12 21.68L35.12 0L39.40 0L39.40 21.48Q39.40 24.88 38.72 27.42Q38.04 29.96 36.18 31.36Q34.32 32.76 30.80 32.76ZM48 32.40L44.16 32.40L44.16 0L47.24 0L56.44 21.52L56.44 0L60.20 0L60.20 32.40L57.32 32.40L48 10.28L48 32.40ZM69.12 32.40L65.28 32.40L65.28 0L68.36 0L77.56 21.52L77.56 0L81.32 0L81.32 32.40L78.44 32.40L69.12 10.28L69.12 32.40ZM99.04 32.40L86.40 32.40L86.40 0L98.96 0L98.96 3.36L90.92 3.36L90.92 14.08L97.44 14.08L97.44 17.28L90.92 17.28L90.92 29.16L99.04 29.16L99.04 32.40ZM110.08 32.40L102.68 32.40L102.68 0L109.72 0Q113.32 0 115.42 1.10Q117.52 2.20 118.42 4.40Q119.32 6.60 119.32 9.88L119.32 9.88L119.32 21.80Q119.32 25.24 118.42 27.60Q117.52 29.96 115.50 31.18Q113.48 32.40 110.08 32.40L110.08 32.40ZM107.20 3.36L107.20 29.16L109.76 29.16Q112.24 29.16 113.28 28.20Q114.32 27.24 114.54 25.40Q114.76 23.56 114.76 20.96L114.76 20.96L114.76 10.44Q114.76 7.92 114.44 6.36Q114.12 4.80 113.04 4.08Q111.96 3.36 109.64 3.36L109.64 3.36L107.20 3.36Z" transform="translate(0 65) scale(1)"></path></svg>