<svg width="516" height="112" viewBox="0 0 516 112" fill="none" xmlns="http://www.w3.org/2000/svg">
<g clip-path="url(#clip0)">
<path d="M94.997 28.606V82.818L48.2485 109.924L1.5 82.818V28.606L48.2485 1.5L94.997 28.606Z" stroke="white" stroke-width="3"/>
<g clip-path="url(#clip1)">
<path fill-rule="evenodd" clip-rule="evenodd" d="M50.53 32.9956C54.6307 33.8015 56.0218 34.1022 56.0003 34.1637C55.9796 34.2119 56.7759 36.623 57.7751 39.5274C58.7744 42.4244 59.5914 44.8163 59.5914 44.837C59.5914 44.8637 59.5285 44.9119 59.4589 44.9459C59.3818 44.9867 57.7403 46.7637 55.8122 48.9089C53.8833 51.0548 52.1996 52.92 52.067 53.0704C51.8855 53.2615 51.8077 53.3096 51.7663 53.2482C51.7314 53.1933 49.4818 52.7222 46.0929 52.0519L40.4826 50.9452L40.4974 50.7815C40.5107 50.6926 39.7003 48.2667 38.7151 45.3904C37.15 40.8533 36.9263 40.1563 37.024 40.1148C37.087 40.0948 38.8337 38.1948 40.8951 35.9059C44.6396 31.7585 44.6537 31.7452 44.8359 31.8267C44.9403 31.8748 47.4974 32.4007 50.53 32.9956V32.9956ZM45.7855 22.5956C45.7648 22.6504 45.5337 24.5437 45.2826 26.8119C44.9122 30.0363 44.7937 30.9385 44.71 30.9793C44.6537 31.0141 41.2233 31.7926 37.0944 32.7148C32.9648 33.6378 29.5411 34.4163 29.4855 34.4437C29.43 34.4778 29.3744 34.5326 29.3596 34.5733C29.3455 34.6148 30.904 35.7763 32.8322 37.1637C34.7537 38.5437 36.3189 39.7119 36.3048 39.7533C36.1863 40.0467 31.7144 54.3615 31.7144 54.437C31.7144 54.4919 31.7559 54.5459 31.8055 54.56C31.847 54.58 33.6633 53.8356 35.8366 52.8993C38.0092 51.9704 39.8048 51.2252 39.8263 51.2526C40.7626 52.2637 50.4181 62.397 50.4951 62.4519C50.5648 62.5 50.6485 62.5133 50.6907 62.4859C50.7322 62.4585 50.9633 60.7096 51.2351 58.2704C51.4944 55.9741 51.7314 54.0815 51.7522 54.0607C51.7803 54.0407 52.2411 53.9244 52.7796 53.8089C55.1551 53.2822 66.907 50.6444 67.0189 50.6104C67.0518 50.5987 67.0806 50.5776 67.1017 50.5497C67.1228 50.5217 67.1352 50.4882 67.1374 50.4533C67.1374 50.3778 65.9633 49.497 63.77 47.9111C61.9181 46.5859 60.3603 45.4585 60.304 45.4178C60.2277 45.363 60.5907 44.1193 62.4774 38.1067C63.7277 34.1289 64.7685 30.7881 64.7966 30.6926C64.8248 30.5696 64.8114 30.5015 64.7411 30.4741C64.6848 30.4533 62.8892 31.1911 60.7514 32.1067C58.6137 33.023 56.8322 33.7807 56.8033 33.7948C56.7692 33.8022 54.5329 31.4852 51.8366 28.6496C46.0366 22.5548 45.9811 22.5 45.8907 22.5C45.8559 22.5 45.807 22.5407 45.7855 22.5963" fill="white"/>
</g>
<path d="M38.727 79.07C39.267 79.57 39.9537 79.82 40.787 79.82C41.6203 79.82 42.3003 79.47 42.827 78.77C43.3603 78.07 43.627 77.1433 43.627 75.99C43.627 73.3967 42.397 72.1 39.937 72.1C39.097 72.1 38.217 72.2867 37.297 72.66C37.1703 74.28 37.107 76.5833 37.107 79.57C37.107 82.5567 37.1903 85.1067 37.357 87.22L38.397 87.3C38.4303 87.7133 38.447 87.9967 38.447 88.15C38.447 88.31 38.4203 88.55 38.367 88.87C37.827 88.85 37.0337 88.84 35.987 88.84C34.9403 88.84 34.2203 88.85 33.827 88.87C33.7737 88.59 33.747 88.3233 33.747 88.07C33.747 87.8167 33.7637 87.56 33.797 87.3L34.777 87.22C34.9303 85.1667 35.007 82.59 35.007 79.49C35.007 76.39 34.9137 74.1033 34.727 72.63L33.657 72.54C33.6037 72.32 33.577 72.0333 33.577 71.68C33.577 71.32 33.587 71.0867 33.607 70.98C34.8537 70.94 35.9537 70.85 36.907 70.71C37.8603 70.57 38.877 70.5 39.957 70.5C44.0303 70.5 46.067 72.33 46.067 75.99C46.067 77.4633 45.7037 78.6767 44.977 79.63C44.2437 80.5833 43.2237 81.18 41.917 81.42C43.7703 84.3533 45.0503 86.24 45.757 87.08L47.077 87.16C47.1103 87.46 47.127 87.7367 47.127 87.99C47.127 88.2367 47.1003 88.5 47.047 88.78C45.347 88.84 44.1603 88.8867 43.487 88.92L43.377 88.62C43.057 87.8333 42.6703 87.0167 42.217 86.17C41.757 85.3167 40.8003 83.7533 39.347 81.48C38.9537 81.46 38.5503 81.3567 38.137 81.17C38.137 80.7967 38.2003 80.39 38.327 79.95C38.447 79.51 38.5803 79.2167 38.727 79.07ZM54.517 79.07C55.0637 79.57 55.7503 79.82 56.577 79.82C57.4103 79.82 58.0937 79.47 58.627 78.77C59.1537 78.07 59.417 77.1433 59.417 75.99C59.417 73.3967 58.187 72.1 55.727 72.1C54.887 72.1 54.0103 72.2867 53.097 72.66C52.9637 74.28 52.897 76.5833 52.897 79.57C52.897 82.5567 52.9803 85.1067 53.147 87.22L54.187 87.3C54.2203 87.7133 54.237 87.9967 54.237 88.15C54.237 88.31 54.2103 88.55 54.157 88.87C53.617 88.85 52.8237 88.84 51.777 88.84C50.7303 88.84 50.0103 88.85 49.617 88.87C49.5637 88.59 49.537 88.3233 49.537 88.07C49.537 87.8167 49.557 87.56 49.597 87.3L50.577 87.22C50.7237 85.1667 50.797 82.59 50.797 79.49C50.797 76.39 50.7037 74.1033 50.517 72.63L49.457 72.54C49.397 72.32 49.367 72.0333 49.367 71.68C49.367 71.32 49.377 71.0867 49.397 70.98C50.6503 70.94 51.7503 70.85 52.697 70.71C53.6503 70.57 54.6703 70.5 55.757 70.5C59.8237 70.5 61.857 72.33 61.857 75.99C61.857 77.4633 61.4937 78.6767 60.767 79.63C60.0403 80.5833 59.0237 81.18 57.717 81.42C59.5637 84.3533 60.8403 86.24 61.547 87.08L62.867 87.16C62.9003 87.46 62.917 87.7367 62.917 87.99C62.917 88.2367 62.8903 88.5 62.837 88.78C61.137 88.84 59.9503 88.8867 59.277 88.92L59.167 88.62C58.8537 87.8333 58.467 87.0167 58.007 86.17C57.547 85.3167 56.5903 83.7533 55.137 81.48C54.7437 81.46 54.3437 81.3567 53.937 81.17C53.937 80.7967 53.997 80.39 54.117 79.95C54.237 79.51 54.3703 79.2167 54.517 79.07Z" fill="white"/>
</g>
<path d="M137.53 76.4878C135.165 76.4781 133.101 75.7868 131.338 74.4139C129.574 73.059 127.629 70.6071 125.502 67.0583L118.843 56.0336L114.15 56.0144L114.07 75.7449L108.036 75.7202L108.179 40.7875C108.188 38.5952 107.878 36.9677 107.249 35.9049C106.639 34.8422 105.394 34.307 103.513 34.2993L102.172 34.2938L102.177 33L119.607 33.0713C123.853 33.0887 127.705 33.9131 131.162 35.5446C134.619 37.176 136.338 40.2559 136.319 44.7842C136.296 50.5164 132.705 54.1676 125.548 55.7376L132.541 67.0872C134.187 69.7714 135.669 71.6463 136.987 72.7119C138.286 73.7595 139.811 74.3767 141.561 74.5636L141.555 75.8574C141.145 76.0354 140.576 76.1858 139.85 76.3086C139.104 76.4314 138.331 76.4911 137.53 76.4878ZM119.187 53.7708C120.565 53.7764 122.075 53.4592 123.717 52.819C125.358 52.1788 126.749 51.1692 127.891 49.7902C129.033 48.4112 129.607 46.7334 129.615 44.7567C129.624 42.6363 129.063 40.873 127.933 39.4667C126.803 38.0604 125.42 37.0215 123.784 36.35C122.148 35.6784 120.641 35.3398 119.263 35.3341C117.699 35.3277 116.022 35.5365 114.232 35.9604L114.162 53.1033C115.948 53.5419 117.623 53.7644 119.187 53.7708ZM153.145 76.5517C151.711 76.5459 150.26 76.2524 148.791 75.6714C147.322 75.0723 146.069 74.1058 145.032 72.7718C143.976 71.4198 143.452 69.6476 143.461 67.4553C143.475 64.1849 145.058 61.8642 148.21 60.4935C151.382 59.1228 155.509 58.4478 160.593 58.4687L162.604 58.4769C162.622 54.2541 162.028 51.3585 160.824 49.7902C159.639 48.24 157.901 47.4601 155.61 47.4508C153.599 47.4425 151.987 47.8492 150.773 48.6709C149.578 49.4746 148.725 50.8908 148.213 52.9193L145.197 52.9069C145.203 51.4334 145.301 50.2837 145.49 49.4579C145.661 48.614 146.13 47.8253 146.897 47.0916C147.7 46.3222 149.034 45.7527 150.898 45.3829C152.762 45.0312 154.783 44.8597 156.962 44.8687C160.593 44.8835 163.447 45.8296 165.525 47.707C167.622 49.6024 168.659 53.2006 168.638 58.5016L168.566 75.9679L165.214 75.9542L162.88 73.0336L162.545 73.0322C161.74 74.0172 160.554 74.857 158.987 75.5514C157.42 76.2278 155.472 76.5613 153.145 76.5517ZM156.173 73.653C157.645 73.659 158.875 73.3226 159.865 72.6438C160.855 71.9471 161.752 70.9984 162.558 69.7977L162.594 61.0645L160.583 61.0563C157.286 61.0428 154.668 61.6251 152.726 62.8031C150.803 63.9813 149.838 65.5407 149.83 67.4814C149.822 69.458 150.43 70.979 151.655 72.0442C152.879 73.1094 154.386 73.6457 156.173 73.653ZM176.024 75.9985L176.029 74.7586L193.568 48.253L185.859 48.2215C183.084 48.2101 180.987 48.7047 179.568 49.7052C178.167 50.7237 177.463 52.1584 177.455 54.0093L176.114 54.0038L176.128 50.7693C176.142 47.3192 178.048 45.6019 181.847 45.6174L202.294 45.7011L184.079 73.4438L202.18 73.5179L202.169 76.1055L176.024 75.9985ZM221.328 76.8308L211.034 53.1764C209.964 50.7641 208.947 49.0707 207.982 48.0964C206.999 47.122 205.698 46.5866 204.078 46.4901L204.083 45.1963C204.307 45.1972 204.633 45.1716 205.061 45.1195C205.49 45.0853 205.928 45.0691 206.375 45.0709C208.739 45.0806 210.879 45.6644 212.792 46.8223C214.724 47.9623 216.373 50.0895 217.738 53.2038L223.714 67.1369L233.187 45.8276L236.539 45.8413L222.669 76.8363L221.328 76.8308ZM249.959 76.948C248.526 76.9421 247.074 76.6487 245.605 76.0676C244.137 75.4686 242.874 74.5021 241.818 73.168C240.781 71.816 240.267 70.0439 240.276 67.8516C240.289 64.5811 241.872 62.2605 245.025 60.8898C248.178 59.519 252.305 58.844 257.408 58.8649L259.419 58.8732C259.436 54.6503 258.843 51.7548 257.639 50.1865C256.435 48.6362 254.697 47.8563 252.425 47.847C250.414 47.8388 248.801 48.2455 247.587 49.0672C246.374 49.8708 245.521 51.287 245.028 53.3155L242.011 53.3032C242.017 51.8297 242.106 50.68 242.277 49.8541C242.467 49.0103 242.945 48.2215 243.711 47.4879C244.515 46.7185 245.849 46.149 247.713 45.7792C249.558 45.4274 251.579 45.2559 253.776 45.2649C257.389 45.2797 260.244 46.2258 262.34 48.1033C264.437 49.9987 265.474 53.5969 265.452 58.8979L265.381 76.3642L262.029 76.3505L259.695 73.4298L259.359 73.4285C258.555 74.4135 257.369 75.2532 255.802 75.9476C254.235 76.6241 252.287 76.9575 249.959 76.948ZM252.988 74.0493C254.459 74.0553 255.69 73.7189 256.679 73.0401C257.669 72.3434 258.567 71.3946 259.373 70.194L259.408 61.4608L257.397 61.4525C254.083 61.439 251.464 62.0213 249.541 63.1994C247.618 64.3775 246.653 65.937 246.645 67.8777C246.636 69.8543 247.245 71.3752 248.469 72.4405C249.694 73.5057 251.2 74.042 252.988 74.0493ZM275.688 76.4064L275.781 53.7649C275.79 51.5726 275.489 49.9451 274.879 48.8824C274.25 47.8196 272.995 47.2843 271.115 47.2766L269.774 47.2711L269.779 45.9773L275.813 46.002C277.47 46.0088 278.735 46.2296 279.609 46.6645C280.482 47.0993 281.113 47.7488 281.5 48.613L281.835 48.6143C282.789 47.7197 284.012 46.9611 285.504 46.3382C287.015 45.7155 288.701 45.4079 290.564 45.4155C293.916 45.4292 296.649 46.303 298.765 48.0367C300.881 49.7705 301.93 52.7937 301.913 57.1064L301.833 76.5134L295.8 76.4887L295.879 57.0817C295.891 54.0628 295.202 51.8497 293.811 50.4424C292.402 49.0349 290.645 48.3269 288.541 48.3183C286.176 48.3086 283.936 49.4406 281.823 51.7141L281.722 76.4311L275.688 76.4064ZM359.707 77.3972C357.323 77.3875 355.259 76.6962 353.514 75.3233C351.751 73.9684 349.805 71.5165 347.678 67.9678L341.02 56.943L336.327 56.9238L336.246 76.6543L330.213 76.6296L330.356 41.6969C330.365 39.5046 330.055 37.8771 329.426 36.8143C328.797 35.7515 327.552 35.2163 325.689 35.2087L324.349 35.2032L324.354 33.9094L341.784 33.9808C346.03 33.9981 349.881 34.8225 353.338 36.454C356.795 38.0854 358.514 41.1653 358.496 45.6936C358.472 51.4258 354.882 55.077 347.725 56.647L354.717 67.9966C356.345 70.6807 357.818 72.5556 359.136 73.6212C360.454 74.6689 361.987 75.2861 363.737 75.473L363.732 76.7668C363.321 76.9448 362.744 77.0952 361.998 77.2179C361.271 77.3407 360.508 77.4005 359.707 77.3972ZM341.364 54.6802C342.742 54.6859 344.252 54.3686 345.893 53.7284C347.516 53.0881 348.898 52.0785 350.04 50.6995C351.2 49.3205 351.784 47.6428 351.792 45.6661C351.801 43.5457 351.231 41.7824 350.082 40.376C348.952 38.9697 347.578 37.9309 345.961 37.2594C344.325 36.5878 342.818 36.2492 341.44 36.2435C339.875 36.2371 338.198 36.4459 336.409 36.8699L336.339 54.0127C338.125 54.4513 339.8 54.6738 341.364 54.6802ZM380.265 77.4814C377.23 77.469 374.598 76.7574 372.369 75.3466C370.14 73.9358 368.453 72.0241 367.309 69.6115C366.145 67.1808 365.57 64.5009 365.582 61.5719C365.594 58.6429 366.191 55.9678 367.374 53.5468C368.539 51.1436 370.241 49.2457 372.482 47.8533C374.722 46.4608 377.36 45.7708 380.395 45.7832C383.449 45.7957 386.091 46.5073 388.319 47.9181C390.548 49.3289 392.235 51.2406 393.38 53.6532C394.524 56.0838 395.091 58.7636 395.079 61.6926C395.067 64.6217 394.478 67.2968 393.314 69.7179C392.15 72.1211 390.447 74.0189 388.207 75.4114C385.967 76.8039 383.319 77.4939 380.265 77.4814ZM380.276 74.8938C381.933 74.9005 383.407 74.3226 384.697 73.1598C385.968 71.997 386.952 70.4107 387.649 68.4009C388.346 66.3732 388.7 64.1284 388.71 61.6666C388.72 59.2047 388.385 56.9572 387.704 54.9238C387.023 52.9084 386.052 51.3141 384.791 50.1409C383.511 48.9676 382.042 48.3776 380.385 48.3708C378.746 48.3641 377.282 48.9421 375.992 50.1049C374.721 51.2677 373.737 52.854 373.039 54.8638C372.324 56.8914 371.961 59.1361 371.95 61.598C371.94 64.0598 372.285 66.3074 372.984 68.3409C373.665 70.3563 374.636 71.9506 375.898 73.1238C377.178 74.2971 378.637 74.8871 380.276 74.8938ZM403.871 76.9311L403.964 54.2895C403.973 52.0973 403.672 50.4698 403.062 49.407C402.433 48.3442 401.178 47.809 399.298 47.8013L397.957 47.7958L397.962 46.502L403.996 46.5267C405.653 46.5335 406.918 46.7543 407.792 47.1892C408.665 47.624 409.296 48.2735 409.683 49.1376L410.018 49.139C410.972 48.2444 412.195 47.4857 413.687 46.8629C415.179 46.2401 416.866 45.9325 418.747 45.9402C420.627 45.9479 422.237 46.2869 423.575 46.9573C424.913 47.6276 425.979 48.809 426.773 50.5014C427.952 49.0866 429.446 47.9786 431.256 47.1774C433.065 46.3941 434.929 46.0064 436.847 46.0143C439.715 46.026 441.992 46.8979 443.68 48.6299C445.368 50.3619 446.202 53.3842 446.185 57.6969L446.105 77.104L440.072 77.0793L440.151 57.6722C440.164 54.5635 439.726 52.3334 438.838 50.9821C437.95 49.6127 436.612 48.9244 434.824 48.9171C433.576 48.912 432.262 49.3469 430.88 50.2217C429.48 51.0965 428.442 52.0537 427.768 53.0932C427.989 53.741 428.094 55.2508 428.084 57.6228L428.005 77.0299L421.972 77.0052L422.051 57.5981C422.064 54.4894 421.626 52.2594 420.738 50.908C419.849 49.5387 418.511 48.8503 416.724 48.843C414.359 48.8333 412.119 49.9652 410.006 52.2388L409.905 76.9558L403.871 76.9311ZM463.002 77.82C461.568 77.8142 460.117 77.5207 458.648 76.9397C457.179 76.3406 455.917 75.3741 454.861 74.04C453.824 72.688 453.31 70.9159 453.319 68.7236C453.332 65.4532 454.915 63.1325 458.068 61.7618C461.22 60.391 465.348 59.7161 470.45 59.737L472.462 59.7452C472.479 55.5224 471.885 52.6268 470.681 51.0585C469.477 49.5082 467.739 48.7284 465.468 48.7191C463.456 48.7108 461.844 49.1175 460.63 49.9392C459.416 50.7428 458.563 52.159 458.071 54.1876L455.054 54.1752C455.06 52.7017 455.158 51.552 455.347 50.7262C455.519 49.8823 455.987 49.0936 456.754 48.3599C457.558 47.5905 458.892 47.021 460.755 46.6512C462.6 46.2994 464.621 46.128 466.819 46.137C470.431 46.1517 473.286 47.0978 475.383 48.9753C477.479 50.8707 478.517 54.4689 478.495 59.7699L478.423 77.2362L475.072 77.2225L472.737 74.3019L472.402 74.3005C471.597 75.2855 470.411 76.1253 468.844 76.8197C467.277 77.4961 465.33 77.8296 463.002 77.82ZM466.031 74.9213C467.502 74.9273 468.732 74.5909 469.722 73.9121C470.712 73.2154 471.61 72.2667 472.415 71.066L472.451 62.3328L470.44 62.3246C467.125 62.311 464.506 62.8933 462.583 64.0714C460.661 65.2496 459.695 66.809 459.687 68.7497C459.679 70.7263 460.287 72.2473 461.512 73.3125C462.737 74.3777 464.243 74.914 466.031 74.9213ZM488.759 77.2785L488.851 54.637C488.86 52.4447 488.55 50.8172 487.922 49.7544C487.293 48.6916 486.047 48.1564 484.185 48.1488L482.844 48.1433L482.85 46.8495L488.883 46.8742C490.522 46.8809 491.778 47.1017 492.651 47.5365C493.525 47.9714 494.165 48.6209 494.571 49.4851L494.906 49.4865C495.841 48.5918 497.054 47.8331 498.547 47.2102C500.057 46.5875 501.753 46.28 503.634 46.2877C506.986 46.3014 509.72 47.1751 511.836 48.9089C513.952 50.6426 515.001 53.6658 514.983 57.9785L514.904 77.3856L508.87 77.3609L508.95 57.9538C508.962 54.9349 508.263 52.7218 506.854 51.3144C505.444 49.907 503.697 49.199 501.611 49.1905C499.227 49.1807 496.988 50.3126 494.893 52.5862L494.792 77.3032L488.759 77.2785Z" fill="white"/>
<defs>
<clipPath id="clip0">
<rect width="96.497" height="111.424" fill="white"/>
</clipPath>
<clipPath id="clip1">
<rect width="37.7778" height="40" fill="white" transform="translate(29.3596 22.5)"/>
</clipPath>
</defs>
</svg>
