<svg width="184" height="36" viewBox="0 0 184 36" fill="none" xmlns="http://www.w3.org/2000/svg">
<g clip-path="url(#clip0)">
<path d="M16.2968 30.88H11.4229C10.8038 30.88 10.2998 30.376 10.2998 29.7569V27.7308C10.2998 27.6306 10.0915 27.476 9.7566 27.3282L9.70228 27.303C9.06248 27.0171 8.43976 26.6425 7.86464 26.1956C7.71792 26.0816 7.52108 26.0506 7.4074 26.1169L5.72292 27.0894C5.13716 27.4273 4.46488 27.207 4.16668 26.6906L1.72956 22.4694C1.57948 22.2095 1.53972 21.9071 1.61728 21.6173C1.69512 21.3272 1.88076 21.085 2.14088 20.935L2.40352 21.295L2.18036 20.912L2.29628 20.8454L2.55164 21.2096L2.3296 20.8263L3.6638 20.0563C4.06868 19.8211 4.06868 19.8211 4.0334 19.5694C3.97712 19.1869 3.9522 18.7921 3.9522 18.3086V18.2517C3.9522 17.7684 3.97712 17.3736 4.03088 17.0099L4.03452 16.9836C4.06868 16.7389 4.06868 16.7389 3.64896 16.4956L2.33044 15.7342L2.52532 15.3352L2.30412 15.7191L2.18092 15.648L2.37664 15.2496L2.1406 15.6248C1.60468 15.3154 1.42016 14.6271 1.72984 14.0909L4.16696 9.86964C4.36688 9.523 4.73984 9.30796 5.14024 9.30796C5.33652 9.30796 5.53056 9.36004 5.70108 9.45832L7.41216 10.4462C7.52668 10.5086 7.72016 10.477 7.86492 10.3644C8.43948 9.91808 9.06248 9.54316 9.71628 9.25028L9.75688 9.2318C10.0918 9.08396 10.3001 8.92968 10.3001 8.82916V6.80308C10.3001 6.18372 10.8041 5.67972 11.4232 5.67972H16.2971C16.9165 5.67972 17.4202 6.18372 17.4202 6.80308V8.82916C17.4202 8.9294 17.6288 9.08368 17.964 9.2318L18.0118 9.25392C18.6623 9.54568 19.2825 9.9192 19.8559 10.3644C20.0004 10.4767 20.1933 10.508 20.3084 10.4462L22.0116 9.4628C22.5778 9.14164 23.2565 9.35556 23.5539 9.86908L25.9907 14.0906C26.2998 14.6271 26.1156 15.3151 25.5794 15.6248L24.4566 16.2732L24.2043 15.907L24.4266 16.2903L24.0842 16.4883C23.6519 16.7389 23.6519 16.7389 23.6872 16.9909L23.6916 17.0234C23.7443 17.3913 23.7678 17.7788 23.7678 18.2517L23.7675 18.28L23.7678 18.3086C23.7678 18.7902 23.7432 19.183 23.6902 19.5442L23.69 19.5487C23.6519 19.8217 23.6519 19.8217 24.0713 20.065L24.4266 20.27L24.2329 20.6692L24.4552 20.2862L25.3907 20.8263L25.1953 21.2253L25.4165 20.8412L25.5858 20.9394C25.8392 21.0853 26.0252 21.3278 26.1027 21.6179C26.1806 21.9077 26.1408 22.2101 25.991 22.4699L23.5536 26.6904C23.3534 27.037 22.9802 27.252 22.5798 27.252C22.3835 27.252 22.1894 27.2 22.0189 27.1017L20.3154 26.118C20.1933 26.0475 20.0021 26.0816 19.8556 26.195C19.2842 26.6388 18.6665 27.0112 18.0194 27.3022L17.9558 27.331C17.628 27.476 17.4194 27.6303 17.4194 27.7308V29.7569C17.4199 30.376 16.9162 30.88 16.2968 30.88ZM10.1144 26.5173C10.5745 26.7209 11.186 27.0675 11.186 27.7308V29.7569C11.186 29.8874 11.2921 29.9941 11.4229 29.9941H16.2968C16.4276 29.9941 16.5343 29.8874 16.5343 29.7569V27.7308C16.5343 27.0675 17.1461 26.7209 17.6058 26.5173L17.642 26.5005C18.2305 26.2376 18.7919 25.8994 19.3122 25.4956C19.7378 25.1646 20.3333 25.1058 20.755 25.3486L21.4584 25.7543L21.2682 26.1567L21.488 25.7722L21.8728 25.9943L21.6922 26.4014L21.9136 26.0178L22.4571 26.3317C22.5056 26.3574 22.542 26.3661 22.5798 26.3661C22.6649 26.3661 22.7438 26.3205 22.7858 26.2471L25.2227 22.0264C25.2543 21.9715 25.263 21.9077 25.2462 21.8464C25.23 21.7853 25.1911 21.7344 25.1359 21.7024L23.6398 20.8386C22.9732 20.4522 22.7125 20.177 22.806 19.4675L22.8105 19.4333C22.8592 19.1018 22.8813 18.7484 22.8813 18.3083L22.8816 18.28L22.8819 18.2514C22.8819 17.8116 22.8598 17.4579 22.8127 17.1387L22.8077 17.0981C22.7088 16.3866 22.969 16.11 23.627 15.7286L24.0685 15.4736L24.318 15.8409L24.0962 15.4576L24.9474 14.9662L25.195 15.3347L24.9741 14.9508L25.1205 14.866C25.2493 14.7915 25.2885 14.6462 25.223 14.5328L22.7861 10.3118C22.7226 10.2017 22.575 10.16 22.4622 10.225L21.488 10.7872L21.2528 10.4114L21.4628 10.8018L20.7337 11.2218C20.281 11.464 19.726 11.3856 19.3122 11.0636C18.793 10.6606 18.2316 10.3227 17.6434 10.0595L17.6196 10.048C17.1447 9.838 16.5343 9.49136 16.5343 8.82888V6.8028C16.5343 6.67204 16.4276 6.56564 16.2968 6.56564H11.4229C11.2921 6.56564 11.186 6.67176 11.186 6.8028V8.82888C11.186 9.4922 10.5745 9.83884 10.1144 10.0421L9.90444 9.65096L10.0878 10.0542C9.48892 10.3224 8.92696 10.6606 8.40812 11.0636C7.98252 11.3945 7.38668 11.4533 6.96528 11.2108L6.26164 10.8046L6.45176 10.4025L6.23196 10.7872L5.27632 10.2353C5.22116 10.2034 5.18168 10.1928 5.13996 10.1928C5.05512 10.1928 4.97644 10.2384 4.93416 10.3115L2.49676 14.5336C2.46512 14.5885 2.45672 14.6526 2.47324 14.7136C2.48976 14.7747 2.52896 14.8256 2.58356 14.8576L4.07876 15.7208C4.753 16.1117 5.01228 16.3889 4.91064 17.1144L4.90672 17.1421C4.85996 17.4593 4.83812 17.813 4.83812 18.252L4.8384 18.287C4.83812 18.7479 4.85996 19.1015 4.907 19.4216L4.91092 19.4515C5.01228 20.172 4.75272 20.4489 4.09304 20.8316L2.5998 21.6932C2.52896 21.7341 2.48976 21.7853 2.47324 21.8464C2.45672 21.9077 2.46512 21.9712 2.49676 22.0261L4.93416 26.2474C4.998 26.3583 5.14584 26.3989 5.25812 26.3345L6.23224 25.772L6.46772 26.1474L6.26332 25.754L6.98516 25.3382C7.14 25.2486 7.34412 25.1952 7.55608 25.1952C7.85624 25.1952 8.15892 25.3021 8.4084 25.4959C8.92472 25.8974 9.48332 26.234 10.0691 26.4966L10.0934 26.5081L10.0573 26.584L9.9358 26.923L10.1144 26.5173Z" fill="#FFFBFB"/>
<path d="M13.86 26.1189C9.55305 26.1189 6.04913 22.6153 6.04913 18.3083C6.04913 14.0013 9.55305 10.4974 13.86 10.4974C18.167 10.4974 21.6709 14.0013 21.6709 18.3083C21.6709 22.6153 18.167 26.1189 13.86 26.1189ZM13.86 11.3836C10.0416 11.3836 6.93533 14.4902 6.93533 18.3086C6.93533 22.1269 10.0416 25.2333 13.86 25.2333C17.6787 25.2333 20.785 22.1267 20.785 18.3086C20.785 14.4899 17.6787 11.3836 13.86 11.3836Z" fill="white"/>
<path fill-rule="evenodd" clip-rule="evenodd" d="M16.9288 21.5263L16.2417 20.8392L18.6463 18.4348L16.2417 16.0299L16.9288 15.3428L20.0206 18.4348L16.9288 21.5263ZM12.5258 21.3496L14.6362 15.0337H15.608L13.4977 21.3496H12.5258V21.3496ZM11.0681 21.2833L7.97636 18.1918L11.0681 15.1L11.7552 15.7872L9.3506 18.1918L11.7552 20.5964L11.0681 21.2833Z" fill="white"/>
<path d="M48.72 26.04C47.8733 26.04 47.1333 25.7867 46.5 25.28C45.8667 24.78 45.1667 23.8733 44.4 22.56L42 18.48H40.32V25.8H38.16V12.84C38.16 12.0267 38.0467 11.4233 37.82 11.03C37.6 10.6367 37.1533 10.44 36.48 10.44H36V9.96H42.24C43.76 9.96 45.14 10.26 46.38 10.86C47.62 11.46 48.24 12.6 48.24 14.28C48.24 16.4067 46.96 17.7667 44.4 18.36L46.92 22.56C47.5133 23.5533 48.0467 24.2467 48.52 24.64C48.9867 25.0267 49.5333 25.2533 50.16 25.32V25.8C50.0133 25.8667 49.81 25.9233 49.55 25.97C49.2833 26.0167 49.0067 26.04 48.72 26.04ZM42.12 17.64C42.6133 17.64 43.1533 17.52 43.74 17.28C44.3267 17.04 44.8233 16.6633 45.23 16.15C45.6367 15.6367 45.84 15.0133 45.84 14.28C45.84 13.4933 45.6367 12.84 45.23 12.32C44.8233 11.8 44.3267 11.4167 43.74 11.17C43.1533 10.9233 42.6133 10.8 42.12 10.8C41.56 10.8 40.96 10.88 40.32 11.04V17.4C40.96 17.56 41.56 17.64 42.12 17.64ZM54.31 26.04C53.7967 26.04 53.2767 25.9333 52.75 25.72C52.2233 25.5 51.7733 25.1433 51.4 24.65C51.02 24.15 50.83 23.4933 50.83 22.68C50.83 21.4667 51.3933 20.6033 52.52 20.09C53.6533 19.5767 55.13 19.32 56.95 19.32H57.67C57.67 17.7533 57.4533 16.68 57.02 16.1C56.5933 15.5267 55.97 15.24 55.15 15.24C54.43 15.24 53.8533 15.3933 53.42 15.7C52.9933 16 52.69 16.5267 52.51 17.28H51.43C51.43 16.7333 51.4633 16.3067 51.53 16C51.59 15.6867 51.7567 15.3933 52.03 15.12C52.3167 14.8333 52.7933 14.62 53.46 14.48C54.1267 14.3467 54.85 14.28 55.63 14.28C56.93 14.28 57.9533 14.6267 58.7 15.32C59.4533 16.02 59.83 17.3533 59.83 19.32V25.8H58.63L57.79 24.72H57.67C57.3833 25.0867 56.96 25.4 56.4 25.66C55.84 25.9133 55.1433 26.04 54.31 26.04ZM55.39 24.96C55.9167 24.96 56.3567 24.8333 56.71 24.58C57.0633 24.32 57.3833 23.9667 57.67 23.52V20.28H56.95C55.77 20.28 54.8333 20.5 54.14 20.94C53.4533 21.38 53.11 21.96 53.11 22.68C53.11 23.4133 53.33 23.9767 53.77 24.37C54.21 24.7633 54.75 24.96 55.39 24.96ZM62.5 25.8V25.34L68.74 15.48H65.98C64.9867 15.48 64.2367 15.6667 63.73 16.04C63.23 16.42 62.98 16.9533 62.98 17.64H62.5V16.44C62.5 15.16 63.18 14.52 64.54 14.52H71.86L65.38 24.84H71.86V25.8H62.5ZM78.72 26.04L75 17.28C74.6133 16.3867 74.2467 15.76 73.9 15.4C73.5467 15.04 73.08 14.8433 72.5 14.81V14.33C72.58 14.33 72.6967 14.32 72.85 14.3C73.0033 14.2867 73.16 14.28 73.32 14.28C74.1667 14.28 74.9333 14.4933 75.62 14.92C76.3133 15.34 76.9067 16.1267 77.4 17.28L79.56 22.44L82.92 14.52H84.12L79.2 26.04H78.72ZM88.97 26.04C88.4567 26.04 87.9367 25.9333 87.41 25.72C86.8833 25.5 86.43 25.1433 86.05 24.65C85.6767 24.15 85.49 23.4933 85.49 22.68C85.49 21.4667 86.0533 20.6033 87.18 20.09C88.3067 19.5767 89.7833 19.32 91.61 19.32H92.33C92.33 17.7533 92.1133 16.68 91.68 16.1C91.2467 15.5267 90.6233 15.24 89.81 15.24C89.09 15.24 88.5133 15.3933 88.08 15.7C87.6467 16 87.3433 16.5267 87.17 17.28H86.09C86.09 16.7333 86.12 16.3067 86.18 16C86.2467 15.6867 86.4167 15.3933 86.69 15.12C86.9767 14.8333 87.4533 14.62 88.12 14.48C88.78 14.3467 89.5033 14.28 90.29 14.28C91.5833 14.28 92.6067 14.6267 93.36 15.32C94.1133 16.02 94.49 17.3533 94.49 19.32V25.8H93.29L92.45 24.72H92.33C92.0433 25.0867 91.62 25.4 91.06 25.66C90.5 25.9133 89.8033 26.04 88.97 26.04ZM90.05 24.96C90.5767 24.96 91.0167 24.8333 91.37 24.58C91.7233 24.32 92.0433 23.9667 92.33 23.52V20.28H91.61C90.4233 20.28 89.4867 20.5 88.8 20.94C88.1133 21.38 87.77 21.96 87.77 22.68C87.77 23.4133 87.99 23.9767 88.43 24.37C88.87 24.7633 89.41 24.96 90.05 24.96ZM98.18 25.8V17.4C98.18 16.5867 98.07 15.9833 97.85 15.59C97.6233 15.1967 97.1733 15 96.5 15H96.02V14.52H98.18C98.7733 14.52 99.2267 14.6 99.54 14.76C99.8533 14.92 100.08 15.16 100.22 15.48H100.34C100.68 15.1467 101.117 14.8633 101.65 14.63C102.19 14.3967 102.793 14.28 103.46 14.28C104.66 14.28 105.64 14.6 106.4 15.24C107.16 15.88 107.54 17 107.54 18.6V25.8H105.38V18.6C105.38 17.48 105.13 16.66 104.63 16.14C104.123 15.62 103.493 15.36 102.74 15.36C101.893 15.36 101.093 15.7833 100.34 16.63V25.8H98.18ZM128.26 26.04C127.407 26.04 126.667 25.7867 126.04 25.28C125.407 24.78 124.707 23.8733 123.94 22.56L121.54 18.48H119.86V25.8H117.7V12.84C117.7 12.0267 117.587 11.4233 117.36 11.03C117.133 10.6367 116.687 10.44 116.02 10.44H115.54V9.96H121.78C123.3 9.96 124.68 10.26 125.92 10.86C127.16 11.46 127.78 12.6 127.78 14.28C127.78 16.4067 126.5 17.7667 123.94 18.36L126.46 22.56C127.047 23.5533 127.577 24.2467 128.05 24.64C128.523 25.0267 129.073 25.2533 129.7 25.32V25.8C129.553 25.8667 129.347 25.9233 129.08 25.97C128.82 26.0167 128.547 26.04 128.26 26.04ZM121.66 17.64C122.153 17.64 122.693 17.52 123.28 17.28C123.86 17.04 124.353 16.6633 124.76 16.15C125.173 15.6367 125.38 15.0133 125.38 14.28C125.38 13.4933 125.173 12.84 124.76 12.32C124.353 11.8 123.86 11.4167 123.28 11.17C122.693 10.9233 122.153 10.8 121.66 10.8C121.1 10.8 120.5 10.88 119.86 11.04V17.4C120.5 17.56 121.1 17.64 121.66 17.64ZM135.62 26.04C134.533 26.04 133.59 25.78 132.79 25.26C131.99 24.74 131.383 24.0333 130.97 23.14C130.55 22.24 130.34 21.2467 130.34 20.16C130.34 19.0733 130.55 18.08 130.97 17.18C131.383 16.2867 131.99 15.58 132.79 15.06C133.59 14.54 134.533 14.28 135.62 14.28C136.713 14.28 137.66 14.54 138.46 15.06C139.26 15.58 139.867 16.2867 140.28 17.18C140.693 18.08 140.9 19.0733 140.9 20.16C140.9 21.2467 140.693 22.24 140.28 23.14C139.867 24.0333 139.26 24.74 138.46 25.26C137.66 25.78 136.713 26.04 135.62 26.04ZM135.62 25.08C136.213 25.08 136.74 24.8633 137.2 24.43C137.653 23.9967 138.003 23.4067 138.25 22.66C138.497 21.9067 138.62 21.0733 138.62 20.16C138.62 19.2467 138.497 18.4133 138.25 17.66C138.003 16.9133 137.653 16.3233 137.2 15.89C136.74 15.4567 136.213 15.24 135.62 15.24C135.033 15.24 134.51 15.4567 134.05 15.89C133.597 16.3233 133.247 16.9133 133 17.66C132.747 18.4133 132.62 19.2467 132.62 20.16C132.62 21.0733 132.747 21.9067 133 22.66C133.247 23.4067 133.597 23.9967 134.05 24.43C134.51 24.8633 135.033 25.08 135.62 25.08ZM144.07 25.8V17.4C144.07 16.5867 143.96 15.9833 143.74 15.59C143.513 15.1967 143.063 15 142.39 15H141.91V14.52H144.07C144.663 14.52 145.117 14.6 145.43 14.76C145.743 14.92 145.97 15.16 146.11 15.48H146.23C146.57 15.1467 147.007 14.8633 147.54 14.63C148.073 14.3967 148.677 14.28 149.35 14.28C150.023 14.28 150.6 14.4033 151.08 14.65C151.56 14.8967 151.943 15.3333 152.23 15.96C152.65 15.4333 153.183 15.02 153.83 14.72C154.477 14.4267 155.143 14.28 155.83 14.28C156.857 14.28 157.673 14.6 158.28 15.24C158.887 15.88 159.19 17 159.19 18.6V25.8H157.03V18.6C157.03 17.4467 156.87 16.62 156.55 16.12C156.23 15.6133 155.75 15.36 155.11 15.36C154.663 15.36 154.193 15.5233 153.7 15.85C153.2 16.1767 152.83 16.5333 152.59 16.92C152.67 17.16 152.71 17.72 152.71 18.6V25.8H150.55V18.6C150.55 17.4467 150.39 16.62 150.07 16.12C149.75 15.6133 149.27 15.36 148.63 15.36C147.783 15.36 146.983 15.7833 146.23 16.63V25.8H144.07ZM165.24 26.04C164.727 26.04 164.207 25.9333 163.68 25.72C163.153 25.5 162.7 25.1433 162.32 24.65C161.947 24.15 161.76 23.4933 161.76 22.68C161.76 21.4667 162.323 20.6033 163.45 20.09C164.577 19.5767 166.053 19.32 167.88 19.32H168.6C168.6 17.7533 168.383 16.68 167.95 16.1C167.517 15.5267 166.893 15.24 166.08 15.24C165.36 15.24 164.783 15.3933 164.35 15.7C163.917 16 163.613 16.5267 163.44 17.28H162.36C162.36 16.7333 162.393 16.3067 162.46 16C162.52 15.6867 162.687 15.3933 162.96 15.12C163.247 14.8333 163.723 14.62 164.39 14.48C165.05 14.3467 165.773 14.28 166.56 14.28C167.853 14.28 168.877 14.6267 169.63 15.32C170.383 16.02 170.76 17.3533 170.76 19.32V25.8H169.56L168.72 24.72H168.6C168.313 25.0867 167.89 25.4 167.33 25.66C166.77 25.9133 166.073 26.04 165.24 26.04ZM166.32 24.96C166.847 24.96 167.287 24.8333 167.64 24.58C167.993 24.32 168.313 23.9667 168.6 23.52V20.28H167.88C166.693 20.28 165.757 20.5 165.07 20.94C164.383 21.38 164.04 21.96 164.04 22.68C164.04 23.4133 164.26 23.9767 164.7 24.37C165.14 24.7633 165.68 24.96 166.32 24.96ZM174.46 25.8V17.4C174.46 16.5867 174.347 15.9833 174.12 15.59C173.893 15.1967 173.447 15 172.78 15H172.3V14.52H174.46C175.047 14.52 175.497 14.6 175.81 14.76C176.123 14.92 176.353 15.16 176.5 15.48H176.62C176.953 15.1467 177.387 14.8633 177.92 14.63C178.46 14.3967 179.067 14.28 179.74 14.28C180.94 14.28 181.92 14.6 182.68 15.24C183.44 15.88 183.82 17 183.82 18.6V25.8H181.66V18.6C181.66 17.48 181.407 16.66 180.9 16.14C180.393 15.62 179.767 15.36 179.02 15.36C178.167 15.36 177.367 15.7833 176.62 16.63V25.8H174.46Z" fill="white"/>
</g>
<defs>
<clipPath id="clip0">
<rect width="183.816" height="36" fill="white"/>
</clipPath>
</defs>
</svg>
