<?xml version="1.0" standalone="no"?>
<svg xmlns="http://www.w3.org/2000/svg" viewBox="0 0 96.497 111.424" width="96.497" height="111.424"><polygon fill="none" stroke="#000000" stroke-width="3" points="94.997,28.606 94.997,82.81800000000001 48.2485,109.924 1.5,82.81800000000001 1.5,28.606 48.2485,1.5"></polygon><g fill="#000000" color="#000000" transform="translate(29.35961111111111 22.5) scale(0.7407408)"><svg width="51.0" height="54.0" x="0.0" y="0.0" viewBox="0 0 51 54"><path fill="currentColor" fill-rule="evenodd" d="M28.58 14.169c5.536 1.088 7.414 1.494 7.385 1.577-.028.065 1.047 3.32 2.396 7.241 1.349 3.911 2.452 7.14 2.452 7.168 0 .036-.085.101-.179.147-.104.055-2.32 2.454-4.923 5.35-2.604 2.897-4.877 5.415-5.056 5.618-.245.258-.35.323-.406.24-.047-.074-3.084-.71-7.659-1.615l-7.574-1.494.02-.221c.018-.12-1.076-3.395-2.406-7.278-2.113-6.125-2.415-7.066-2.283-7.122.085-.027 2.443-2.592 5.226-5.682 5.055-5.599 5.074-5.617 5.32-5.507.141.065 3.593.775 7.687 1.578M22.175.129c-.028.074-.34 2.63-.679 5.692-.5 4.353-.66 5.571-.773 5.626-.076.047-4.707 1.098-10.281 2.343C4.867 15.036.245 16.087.17 16.124c-.075.046-.15.12-.17.175-.019.056 2.085 1.624 4.688 3.497 2.594 1.863 4.707 3.44 4.688 3.496-.16.396-6.197 19.721-6.197 19.823 0 .074.056.147.123.166.056.027 2.508-.978 5.442-2.242 2.933-1.254 5.357-2.26 5.386-2.223 1.264 1.365 14.299 15.045 14.403 15.119.094.065.207.083.264.046.056-.037.368-2.398.735-5.691.35-3.1.67-5.655.698-5.683.038-.027.66-.184 1.387-.34 3.207-.711 19.072-4.272 19.223-4.318a.241.241 0 0 0 .16-.212c0-.102-1.585-1.291-4.546-3.432-2.5-1.789-4.603-3.311-4.679-3.366-.103-.074.387-1.753 2.934-9.87 1.688-5.37 3.093-9.88 3.131-10.009.038-.166.02-.258-.075-.295-.076-.028-2.5.968-5.386 2.204-2.886 1.237-5.291 2.26-5.33 2.279-.046.01-3.065-3.118-6.705-6.946C22.514.074 22.439 0 22.317 0c-.047 0-.113.055-.142.13"></path></svg></g><path fill="#000000" fill-rule="nonzero" d="M5.15 8.57L5.15 8.57Q5.96 9.32 7.21 9.32Q8.46 9.32 9.25 8.27Q10.05 7.22 10.05 5.49L10.05 5.49Q10.05 1.60 6.36 1.60L6.36 1.60Q5.10 1.60 3.72 2.16L3.72 2.16Q3.53 4.59 3.53 9.07Q3.53 13.55 3.78 16.72L3.78 16.72L4.82 16.80Q4.87 17.42 4.87 17.65Q4.87 17.89 4.79 18.37L4.79 18.37Q3.98 18.34 2.41 18.34Q0.84 18.34 0.25 18.37L0.25 18.37Q0.17 17.95 0.17 17.57Q0.17 17.19 0.22 16.80L0.22 16.80L1.20 16.72Q1.43 13.64 1.43 8.99Q1.43 4.34 1.15 2.13L1.15 2.13L0.08 2.04Q0 1.71 0 1.18Q0 0.64 0.03 0.48L0.03 0.48Q1.90 0.42 3.33 0.21Q4.76 0 6.38 0L6.38 0Q12.49 0 12.49 5.49L12.49 5.49Q12.49 7.70 11.40 9.13Q10.30 10.56 8.34 10.92L8.34 10.92Q11.12 15.32 12.18 16.58L12.18 16.58L13.50 16.66Q13.55 17.11 13.55 17.49Q13.55 17.86 13.47 18.28L13.47 18.28Q10.92 18.37 9.91 18.42L9.91 18.42L9.80 18.12Q9.32 16.94 8.64 15.67Q7.95 14.39 5.77 10.98L5.77 10.98Q5.18 10.95 4.56 10.67L4.56 10.67Q4.56 10.11 4.75 9.45Q4.93 8.79 5.15 8.57ZM20.94 8.57L20.94 8.57Q21.76 9.32 23.00 9.32Q24.25 9.32 25.05 8.27Q25.84 7.22 25.84 5.49L25.84 5.49Q25.84 1.60 22.15 1.60L22.15 1.60Q20.89 1.60 19.52 2.16L19.52 2.16Q19.32 4.59 19.32 9.07Q19.32 13.55 19.57 16.72L19.57 16.72L20.61 16.80Q20.66 17.42 20.66 17.65Q20.66 17.89 20.58 18.37L20.58 18.37Q19.77 18.34 18.20 18.34Q16.63 18.34 16.04 18.37L16.04 18.37Q15.96 17.95 15.96 17.57Q15.96 17.19 16.02 16.80L16.02 16.80L17.00 16.72Q17.22 13.64 17.22 8.99Q17.22 4.34 16.94 2.13L16.94 2.13L15.88 2.04Q15.79 1.71 15.79 1.18Q15.79 0.64 15.82 0.48L15.82 0.48Q17.70 0.42 19.12 0.21Q20.55 0 22.18 0L22.18 0Q28.28 0 28.28 5.49L28.28 5.49Q28.28 7.70 27.19 9.13Q26.10 10.56 24.14 10.92L24.14 10.92Q26.91 15.32 27.97 16.58L27.97 16.58L29.29 16.66Q29.34 17.11 29.34 17.49Q29.34 17.86 29.26 18.28L29.26 18.28Q26.71 18.37 25.70 18.42L25.70 18.42L25.59 18.12Q25.12 16.94 24.43 15.67Q23.74 14.39 21.56 10.98L21.56 10.98Q20.97 10.95 20.36 10.67L20.36 10.67Q20.36 10.11 20.54 9.45Q20.72 8.79 20.94 8.57Z" transform="translate(33.577, 70.5)"></path></svg>