<svg width="97" height="112" viewBox="0 0 97 112" fill="none" xmlns="http://www.w3.org/2000/svg">
<g clip-path="url(#clip0)">
<path d="M94.997 28.606V82.818L48.2485 109.924L1.5 82.818V28.606L48.2485 1.5L94.997 28.606Z" stroke="white" stroke-width="3"/>
<g clip-path="url(#clip1)">
<path fill-rule="evenodd" clip-rule="evenodd" d="M50.53 32.9956C54.6307 33.8015 56.0218 34.1022 56.0003 34.1637C55.9796 34.2119 56.7759 36.623 57.7751 39.5274C58.7744 42.4244 59.5914 44.8163 59.5914 44.837C59.5914 44.8637 59.5285 44.9119 59.4589 44.9459C59.3818 44.9867 57.7403 46.7637 55.8122 48.9089C53.8833 51.0548 52.1996 52.92 52.067 53.0704C51.8855 53.2615 51.8077 53.3096 51.7663 53.2482C51.7314 53.1933 49.4818 52.7222 46.0929 52.0519L40.4826 50.9452L40.4974 50.7815C40.5107 50.6926 39.7003 48.2667 38.7151 45.3904C37.15 40.8533 36.9263 40.1563 37.024 40.1148C37.087 40.0948 38.8337 38.1948 40.8951 35.9059C44.6396 31.7585 44.6537 31.7452 44.8359 31.8267C44.9403 31.8748 47.4974 32.4007 50.53 32.9956V32.9956ZM45.7855 22.5956C45.7648 22.6504 45.5337 24.5437 45.2826 26.8119C44.9122 30.0363 44.7937 30.9385 44.71 30.9793C44.6537 31.0141 41.2233 31.7926 37.0944 32.7148C32.9648 33.6378 29.5411 34.4163 29.4855 34.4437C29.43 34.4778 29.3744 34.5326 29.3596 34.5733C29.3455 34.6148 30.904 35.7763 32.8322 37.1637C34.7537 38.5437 36.3189 39.7119 36.3048 39.7533C36.1863 40.0467 31.7144 54.3615 31.7144 54.437C31.7144 54.4919 31.7559 54.5459 31.8055 54.56C31.847 54.58 33.6633 53.8356 35.8366 52.8993C38.0092 51.9704 39.8048 51.2252 39.8263 51.2526C40.7626 52.2637 50.4181 62.397 50.4951 62.4519C50.5648 62.5 50.6485 62.5133 50.6907 62.4859C50.7322 62.4585 50.9633 60.7096 51.2351 58.2704C51.4944 55.9741 51.7314 54.0815 51.7522 54.0607C51.7803 54.0407 52.2411 53.9244 52.7796 53.8089C55.1551 53.2822 66.907 50.6444 67.0189 50.6104C67.0518 50.5987 67.0806 50.5776 67.1017 50.5497C67.1228 50.5217 67.1352 50.4882 67.1374 50.4533C67.1374 50.3778 65.9633 49.497 63.77 47.9111C61.9181 46.5859 60.3603 45.4585 60.304 45.4178C60.2277 45.363 60.5907 44.1193 62.4774 38.1067C63.7277 34.1289 64.7685 30.7881 64.7966 30.6926C64.8248 30.5696 64.8114 30.5015 64.7411 30.4741C64.6848 30.4533 62.8892 31.1911 60.7514 32.1067C58.6137 33.023 56.8322 33.7807 56.8033 33.7948C56.7692 33.8022 54.5329 31.4852 51.8366 28.6496C46.0366 22.5548 45.9811 22.5 45.8907 22.5C45.8559 22.5 45.807 22.5407 45.7855 22.5963" fill="white"/>
</g>
<path d="M38.727 79.07C39.267 79.57 39.9537 79.82 40.787 79.82C41.6204 79.82 42.3004 79.47 42.827 78.77C43.3604 78.07 43.627 77.1433 43.627 75.99C43.627 73.3967 42.397 72.1 39.937 72.1C39.097 72.1 38.217 72.2867 37.297 72.66C37.1704 74.28 37.107 76.5833 37.107 79.57C37.107 82.5567 37.1904 85.1067 37.357 87.22L38.397 87.3C38.4304 87.7133 38.447 87.9967 38.447 88.15C38.447 88.31 38.4204 88.55 38.367 88.87C37.827 88.85 37.0337 88.84 35.987 88.84C34.9404 88.84 34.2204 88.85 33.827 88.87C33.7737 88.59 33.747 88.3233 33.747 88.07C33.747 87.8167 33.7637 87.56 33.797 87.3L34.777 87.22C34.9304 85.1667 35.007 82.59 35.007 79.49C35.007 76.39 34.9137 74.1033 34.727 72.63L33.657 72.54C33.6037 72.32 33.577 72.0333 33.577 71.68C33.577 71.32 33.587 71.0867 33.607 70.98C34.8537 70.94 35.9537 70.85 36.907 70.71C37.8604 70.57 38.877 70.5 39.957 70.5C44.0304 70.5 46.067 72.33 46.067 75.99C46.067 77.4633 45.7037 78.6767 44.977 79.63C44.2437 80.5833 43.2237 81.18 41.917 81.42C43.7704 84.3533 45.0504 86.24 45.757 87.08L47.077 87.16C47.1104 87.46 47.127 87.7367 47.127 87.99C47.127 88.2367 47.1004 88.5 47.047 88.78C45.347 88.84 44.1604 88.8867 43.487 88.92L43.377 88.62C43.057 87.8333 42.6704 87.0167 42.217 86.17C41.757 85.3167 40.8004 83.7533 39.347 81.48C38.9537 81.46 38.5504 81.3567 38.137 81.17C38.137 80.7967 38.2004 80.39 38.327 79.95C38.447 79.51 38.5804 79.2167 38.727 79.07ZM54.517 79.07C55.0637 79.57 55.7504 79.82 56.577 79.82C57.4104 79.82 58.0937 79.47 58.627 78.77C59.1537 78.07 59.417 77.1433 59.417 75.99C59.417 73.3967 58.187 72.1 55.727 72.1C54.887 72.1 54.0104 72.2867 53.097 72.66C52.9637 74.28 52.897 76.5833 52.897 79.57C52.897 82.5567 52.9804 85.1067 53.147 87.22L54.187 87.3C54.2204 87.7133 54.237 87.9967 54.237 88.15C54.237 88.31 54.2104 88.55 54.157 88.87C53.617 88.85 52.8237 88.84 51.777 88.84C50.7304 88.84 50.0104 88.85 49.617 88.87C49.5637 88.59 49.537 88.3233 49.537 88.07C49.537 87.8167 49.557 87.56 49.597 87.3L50.577 87.22C50.7237 85.1667 50.797 82.59 50.797 79.49C50.797 76.39 50.7037 74.1033 50.517 72.63L49.457 72.54C49.397 72.32 49.367 72.0333 49.367 71.68C49.367 71.32 49.377 71.0867 49.397 70.98C50.6504 70.94 51.7504 70.85 52.697 70.71C53.6504 70.57 54.6704 70.5 55.757 70.5C59.8237 70.5 61.857 72.33 61.857 75.99C61.857 77.4633 61.4937 78.6767 60.767 79.63C60.0404 80.5833 59.0237 81.18 57.717 81.42C59.5637 84.3533 60.8404 86.24 61.547 87.08L62.867 87.16C62.9004 87.46 62.917 87.7367 62.917 87.99C62.917 88.2367 62.8904 88.5 62.837 88.78C61.137 88.84 59.9504 88.8867 59.277 88.92L59.167 88.62C58.8537 87.8333 58.467 87.0167 58.007 86.17C57.547 85.3167 56.5904 83.7533 55.137 81.48C54.7437 81.46 54.3437 81.3567 53.937 81.17C53.937 80.7967 53.997 80.39 54.117 79.95C54.237 79.51 54.3704 79.2167 54.517 79.07Z" fill="white"/>
</g>
<defs>
<clipPath id="clip0">
<rect width="96.497" height="111.424" fill="white"/>
</clipPath>
<clipPath id="clip1">
<rect width="37.7778" height="40" fill="white" transform="translate(29.3596 22.5)"/>
</clipPath>
</defs>
</svg>
